<svg id="Layer_1" data-name="Layer 1" xmlns="http://www.w3.org/2000/svg" viewBox="0 0 40 40"><defs><style>.cls-1{fill:#010101;}</style></defs><title>arrow-right</title><path class="cls-1" d="M19.43,17l-11.38.71c-.76.05-.77,1.25,0,1.2l11.38-.71c.77,0,.77-1.25,0-1.2Z"/><path class="cls-1" d="M19.75,16.66a28.79,28.79,0,0,1-6-5.83.62.62,0,0,0-.82-.21.6.6,0,0,0-.21.82,30.68,30.68,0,0,0,6.47,6.25.6.6,0,1,0,.6-1Z"/><path class="cls-1" d="M19.8,22.81a99.58,99.58,0,0,1-16.29.35c-.77,0-.77,1.16,0,1.2A99.58,99.58,0,0,0,19.8,24c.76-.08.77-1.28,0-1.2Z"/><path class="cls-1" d="M3.73,17.77a11.67,11.67,0,0,1-.38,4.16.6.6,0,0,0,1.16.32,12.78,12.78,0,0,0,.42-4.48.62.62,0,0,0-.6-.6.61.61,0,0,0-.6.6Z"/><path class="cls-1" d="M19.34,23.31a32.49,32.49,0,0,1-4.2,5.82c-.52.57.33,1.42.85.84a33.5,33.5,0,0,0,4.38-6.06.6.6,0,0,0-1-.6Z"/><path class="cls-1" d="M15.33,29.93c.61.74,2.24-.29,2.82-.58,1.84-.93,3.6-2,5.34-3.11A112.08,112.08,0,0,0,35,18.2c.62-.51,2.51-1.75,2-2.77-.36-.69-1.4-.08-1,.6-.21-.4.13-.37-.12-.22,0,0-.28.31-.38.42-.44.43-.91.82-1.38,1.2-1.48,1.2-3,2.31-4.59,3.4a121.63,121.63,0,0,1-10.73,6.84c-.67.37-1.34.74-2,1-.2.09-.4.15-.6.22s-.12-.08.07.15c-.49-.6-1.34.25-.85.85Z"/><path class="cls-1" d="M33.87,14.1A90.66,90.66,0,0,1,15,9.85c-.74-.24-1,.91-.32,1.16A92.53,92.53,0,0,0,33.87,15.3c.77.09.76-1.11,0-1.2Z"/></svg>