<svg id="Layer_1" data-name="Layer 1" xmlns="http://www.w3.org/2000/svg" viewBox="0 0 40 40"><defs><style>.cls-1{fill:#010101;}</style></defs><title>arrow-down</title><path class="cls-1" d="M18.74,19.75,17.83,8.39c-.07-.76-1.27-.77-1.2,0l.91,11.36c.07.77,1.27.77,1.2,0Z"/><path class="cls-1" d="M18.2,19.4a30.41,30.41,0,0,0-7-5.42.6.6,0,0,0-.6,1,29,29,0,0,1,6.74,5.23c.54.56,1.39-.29.85-.85Z"/><path class="cls-1" d="M24.6,19.29A100.76,100.76,0,0,0,22.6,3c-.15-.76-1.31-.44-1.16.32a99.18,99.18,0,0,1,2,16c0,.77,1.23.77,1.2,0Z"/><path class="cls-1" d="M16.21,5.38a13.09,13.09,0,0,0,4.52-1.1.6.6,0,1,0-.6-1,11.58,11.58,0,0,1-3.92.93.61.61,0,0,0-.6.6.62.62,0,0,0,.6.6Z"/><path class="cls-1" d="M24.51,19.83a33.93,33.93,0,0,0,5.39-5.19.63.63,0,0,0,0-.85.61.61,0,0,0-.85,0,32,32,0,0,1-5.15,5,.62.62,0,0,0-.21.82.61.61,0,0,0,.82.22Z"/><path class="cls-1" d="M29.15,14.93c-.37-.23-.08-.36-.21-.1a4.55,4.55,0,0,0-.1.49c-.16.63-.37,1.23-.59,1.84-.66,1.8-1.42,3.56-2.21,5.32a125.21,125.21,0,0,1-5.61,11.24c-.38.66-.77,1.33-1.21,2-.13.18-.3.34-.42.53s-.19,0,.13.1c-.73-.25-1,.91-.31,1.16.92.32,1.77-1.36,2.13-1.93,1.09-1.74,2-3.57,3-5.4a113.87,113.87,0,0,0,5.76-12.86c.26-.74,1.24-2.78.27-3.38-.66-.41-1.26.63-.6,1Z"/><path class="cls-1" d="M18,34.29A92.72,92.72,0,0,0,11,16c-.35-.69-1.39-.08-1,.61a90.77,90.77,0,0,1,6.88,18.05A.6.6,0,0,0,18,34.29Z"/></svg>