<svg id="Layer_1" data-name="Layer 1" xmlns="http://www.w3.org/2000/svg" viewBox="0 0 40 40"><defs><style>.cls-1{fill:#010101;}</style></defs><title>arrow-left</title><path class="cls-1" d="M20.57,18.15,32,18.86c.77.05.76-1.15,0-1.2L20.57,17c-.77-.05-.77,1.15,0,1.2Z"/><path class="cls-1" d="M20.85,17.69a30.68,30.68,0,0,0,6.47-6.25.6.6,0,0,0-.21-.82.62.62,0,0,0-.82.21,28.79,28.79,0,0,1-6,5.83.61.61,0,0,0-.22.82.6.6,0,0,0,.82.21Z"/><path class="cls-1" d="M20.2,24a99.58,99.58,0,0,0,16.29.35c.77,0,.77-1.24,0-1.2a99.58,99.58,0,0,1-16.29-.35c-.77-.08-.76,1.12,0,1.2Z"/><path class="cls-1" d="M35.07,17.77a12.78,12.78,0,0,0,.42,4.48.62.62,0,0,0,.74.42.61.61,0,0,0,.42-.74,11.67,11.67,0,0,1-.38-4.16.61.61,0,0,0-.6-.6.62.62,0,0,0-.6.6Z"/><path class="cls-1" d="M19.63,23.91A33.5,33.5,0,0,0,24,30c.52.58,1.37-.27.85-.84a32.49,32.49,0,0,1-4.2-5.82.6.6,0,0,0-1,.6Z"/><path class="cls-1" d="M23.82,29.08s.26-.15.25-.11S24,29,24,29a4,4,0,0,0-.61-.2A16.53,16.53,0,0,1,21.82,28c-1.66-.89-3.28-1.88-4.87-2.88A122.59,122.59,0,0,1,6.44,17.84c-.6-.48-1.2-1-1.75-1.48-.18-.17-.33-.36-.51-.53s.06-.17-.13.2c.36-.68-.68-1.29-1-.6-.48.9,1,1.91,1.53,2.4,1.55,1.32,3.22,2.52,4.89,3.7a111.06,111.06,0,0,0,11.9,7.55c.63.33,2.66,1.68,3.34.85.49-.6-.36-1.45-.85-.85Z"/><path class="cls-1" d="M6.13,15.3A92.53,92.53,0,0,0,25.29,11c.73-.25.42-1.41-.32-1.16A90.66,90.66,0,0,1,6.13,14.1c-.76.09-.77,1.29,0,1.2Z"/></svg>