<svg xmlns="http://www.w3.org/2000/svg" width="79.334" height="70.319" viewBox="0 0 79.334 70.319">
  <g id="Group_54" data-name="Group 54" transform="translate(-59.5 -49.81)">
    <g id="Rectangle_27" data-name="Rectangle 27" transform="translate(59.5 57.323)">
      <path id="Path_27" data-name="Path 27" d="M122.306,122.306H59.5V59.5h62.806Zm-60.48-2.326H119.98V61.826H61.826Z" transform="translate(-59.5 -59.5)" fill="#040405"/>
    </g>
    <g id="_3-2" data-name=" 3-2" transform="translate(68.476 78.453)" style="isolation: isolate">
      <g id="Group_24" data-name="Group 24" style="isolation: isolate">
        <path id="Path_28" data-name="Path 28" d="M77.62,105.287a9.582,9.582,0,0,1-3.932-.73,7.861,7.861,0,0,1-2.612-1.8l1.517-2.078a8.758,8.758,0,0,0,2.093,1.39,6.028,6.028,0,0,0,2.654.575,4.869,4.869,0,0,0,2.739-.716,2.254,2.254,0,0,0,1.081-1.98,2.585,2.585,0,0,0-.309-1.264,2.533,2.533,0,0,0-1-.955,5.85,5.85,0,0,0-1.826-.6,15.6,15.6,0,0,0-2.794-.211V94.558a12.247,12.247,0,0,0,2.444-.21,5.357,5.357,0,0,0,1.643-.59,2.483,2.483,0,0,0,.927-.913,2.346,2.346,0,0,0,.295-1.151,2.058,2.058,0,0,0-.857-1.755,3.77,3.77,0,0,0-2.289-.632,5.093,5.093,0,0,0-2.176.464,8.418,8.418,0,0,0-1.9,1.222l-1.685-2a11,11,0,0,1,2.7-1.628,8.135,8.135,0,0,1,3.2-.618,9.772,9.772,0,0,1,2.529.309,5.965,5.965,0,0,1,1.98.913,4.175,4.175,0,0,1,1.755,3.5A3.484,3.484,0,0,1,82.817,94a6.531,6.531,0,0,1-2.641,1.572v.112a8.619,8.619,0,0,1,1.643.6,5.169,5.169,0,0,1,1.348.941,4.3,4.3,0,0,1,.913,1.292,3.771,3.771,0,0,1,.337,1.6,4.317,4.317,0,0,1-.547,2.19,5.043,5.043,0,0,1-1.475,1.615,6.963,6.963,0,0,1-2.163,1.011A9.515,9.515,0,0,1,77.62,105.287Z" transform="translate(-71.076 -86.75)" fill="#040405"/>
        <path id="Path_29" data-name="Path 29" d="M92.157,111.579V92.34h2.669l.253,1.572h.084a8.336,8.336,0,0,1,2.065-1.362A5.456,5.456,0,0,1,99.572,92a5.616,5.616,0,0,1,2.4.492,4.733,4.733,0,0,1,1.769,1.418,6.651,6.651,0,0,1,1.1,2.218,10.267,10.267,0,0,1,.378,2.894,9.2,9.2,0,0,1-.506,3.159,6.93,6.93,0,0,1-1.362,2.332,6.02,6.02,0,0,1-1.966,1.446,5.463,5.463,0,0,1-2.289.506,4.981,4.981,0,0,1-1.952-.421,5.911,5.911,0,0,1-1.811-1.207h-.085l.169,2.415v4.325Zm6.264-7.78a3.072,3.072,0,0,0,2.471-1.193,5.49,5.49,0,0,0,.983-3.553,5.839,5.839,0,0,0-.759-3.23,2.706,2.706,0,0,0-2.442-1.152,3.663,3.663,0,0,0-1.6.393,6,6,0,0,0-1.657,1.265v6.207a4.508,4.508,0,0,0,1.559.983A4.4,4.4,0,0,0,98.421,103.8Z" transform="translate(-75.811 -87.93)" fill="#040405"/>
        <path id="Path_30" data-name="Path 30" d="M117.967,106.467a7.343,7.343,0,0,1-2.612-.477,6.4,6.4,0,0,1-2.219-1.4,6.882,6.882,0,0,1-1.53-2.275,8.423,8.423,0,0,1,0-6.123,6.887,6.887,0,0,1,1.53-2.274,6.559,6.559,0,0,1,2.219-1.418,7.174,7.174,0,0,1,5.224,0,6.559,6.559,0,0,1,2.219,1.418,6.9,6.9,0,0,1,1.531,2.274,8.423,8.423,0,0,1,0,6.123,6.9,6.9,0,0,1-1.531,2.275,6.4,6.4,0,0,1-2.219,1.4A7.335,7.335,0,0,1,117.967,106.467Zm0-2.64a3.138,3.138,0,0,0,2.64-1.249,6.325,6.325,0,0,0,0-6.685,3.412,3.412,0,0,0-5.28,0,6.325,6.325,0,0,0,0,6.685A3.137,3.137,0,0,0,117.967,103.827Z" transform="translate(-80.05 -87.93)" fill="#040405"/>
      </g>
    </g>
    <g id="_3-2-2" data-name=" 3-2" transform="translate(125.492 49.81)" style="isolation: isolate">
      <g id="Group_25" data-name="Group 25" style="isolation: isolate">
        <path id="Path_31" data-name="Path 31" d="M151.154,68.347a9.582,9.582,0,0,1-3.932-.73,7.871,7.871,0,0,1-2.613-1.8l1.517-2.079a8.735,8.735,0,0,0,2.093,1.39,6.027,6.027,0,0,0,2.653.576,4.872,4.872,0,0,0,2.739-.716,2.256,2.256,0,0,0,1.081-1.98,2.6,2.6,0,0,0-.309-1.265,2.542,2.542,0,0,0-1-.954,5.87,5.87,0,0,0-1.826-.6,15.674,15.674,0,0,0-2.794-.21V57.618a12.184,12.184,0,0,0,2.444-.211,5.337,5.337,0,0,0,1.643-.589,2.482,2.482,0,0,0,.927-.913,2.345,2.345,0,0,0,.295-1.151A2.06,2.06,0,0,0,153.219,53a3.774,3.774,0,0,0-2.29-.633,5.107,5.107,0,0,0-2.176.464,8.489,8.489,0,0,0-1.9,1.222l-1.686-1.994a11.048,11.048,0,0,1,2.7-1.629,8.132,8.132,0,0,1,3.2-.617,9.728,9.728,0,0,1,2.528.309,5.958,5.958,0,0,1,1.981.913,4.175,4.175,0,0,1,1.755,3.5,3.484,3.484,0,0,1-.983,2.527,6.54,6.54,0,0,1-2.641,1.573v.112a8.619,8.619,0,0,1,1.643.6,5.206,5.206,0,0,1,1.348.941,4.306,4.306,0,0,1,.913,1.292,3.763,3.763,0,0,1,.337,1.6,4.32,4.32,0,0,1-.548,2.19,5.039,5.039,0,0,1-1.474,1.615A6.989,6.989,0,0,1,153.766,68,9.553,9.553,0,0,1,151.154,68.347Z" transform="translate(-144.609 -49.81)" fill="#040405"/>
      </g>
    </g>
  </g>
</svg>
