<svg xmlns="http://www.w3.org/2000/svg" width="172.473" height="141.369" viewBox="0 0 172.473 141.369">
  <g id="Group_40" data-name="Group 40" transform="matrix(0.883, 0.469, -0.469, 0.883, 1776.828, 1774.578)">
    <path id="Path_32" data-name="Path 32" d="M-1941.7-712.74a41.956,41.956,0,0,1-5.8-.8,20.682,20.682,0,0,1-5.444-1.969,13.335,13.335,0,0,1-2.561-1.788.607.607,0,0,0-.074-.766c-1.026-.928-2.053-1.842-3.021-2.832s-1.895-2.016-2.807-3.055c-1.829-2.083-3.6-4.22-5.52-6.22a67.958,67.958,0,0,0-6.177-5.658c-2.2-1.787-4.485-3.465-6.821-5.071-1.158-.8-2.328-1.582-3.517-2.332-.595-.375-1.19-.749-1.788-1.118s-1.184-.766-1.805-1.087c-.121-.063-.24-.13-.359-.2a.234.234,0,0,0-.03-.224,7.739,7.739,0,0,0-3.1-2.576,14.213,14.213,0,0,0-4.415-1.166c-1.661-.194-3.336-.221-5-.372a41.966,41.966,0,0,1-4.777-.715,43.439,43.439,0,0,1-4.725-1.267c-1.515-.5-2.99-1.108-4.5-1.629a17.81,17.81,0,0,0-4.621-1.043,11.836,11.836,0,0,0-4.622.71c-1.485.508-2.914,1.167-4.413,1.637a22.659,22.659,0,0,1-4.747.956,44.127,44.127,0,0,1-4.445.052,12.835,12.835,0,0,0-4.056.444,5.817,5.817,0,0,0-3.169,2.362,6.588,6.588,0,0,0-.977,3.7,9.316,9.316,0,0,0,3.935,6.867c.273.213.553.414.837.607l-1.413-.212q-1.984-.3-3.966-.618-3.947-.63-7.9-1.255c-.74-.118-1.478-.243-2.22-.351a17.822,17.822,0,0,0-2.288-.283.327.327,0,0,0-.086.639,14.674,14.674,0,0,0,1.938.489c.652.144,1.306.275,1.961.406q1.965.391,3.936.753,3.925.72,7.865,1.344,1.107.177,2.214.349l1.127.174c.181.028.363.057.544.083a2.52,2.52,0,0,0,.746,0,.372.372,0,0,0,.162-.068,20.294,20.294,0,0,0,5.229,1.484,44.755,44.755,0,0,0,4.868.429,22.271,22.271,0,0,0,4.776-.252,9.468,9.468,0,0,0,2.283-.7.554.554,0,0,0,.06-.934,3.942,3.942,0,0,0,.8-.491.268.268,0,0,0,.142.257,22.933,22.933,0,0,0,4.477,1.938,16.048,16.048,0,0,0,4.773.667,10.658,10.658,0,0,0,1.374-.107c.1-.015.194-.033.289-.055a.333.333,0,0,0,.054.073,16.565,16.565,0,0,1,2.193,2.455,5.53,5.53,0,0,1,.707,1.381,3.6,3.6,0,0,1,.192,1.43c0,.071-.009.142-.016.213l-.005.038-.012.07a3.312,3.312,0,0,1-.1.409c-.019.059-.04.117-.062.174,0,0-.047.1-.057.124a3.792,3.792,0,0,1-.22.4.611.611,0,0,0,.216.825.618.618,0,0,0,.825-.216,4.076,4.076,0,0,0,.461-3.479,6.664,6.664,0,0,0-2.021-3.059,16.853,16.853,0,0,0-1.419-1.133,1.515,1.515,0,0,0,.252-.208.587.587,0,0,0,.09-.695.577.577,0,0,0-.647-.264c-.081.03-.164.052-.245.083-.061.023-.12.052-.18.077l-.021.009-.014,0a3.107,3.107,0,0,1-.52.136l-.088.015-.049.007c-.091.011-.183.02-.275.027q-.294.026-.589.038a14.626,14.626,0,0,1-2.275-.088,23.405,23.405,0,0,1-4.385-.989c-.83-.267-1.649-.556-2.47-.85a.283.283,0,0,0-.04-.01c.018-.019.038-.036.056-.055a3.443,3.443,0,0,0,.813-2.23c.049-.88.052-1.765.059-2.647.008-1.021.036-2.039.072-3.059.01-.285-.412-.276-.437,0-.153,1.689-.363,3.371-.528,5.059a3.791,3.791,0,0,1-.534,1.963,2.712,2.712,0,0,1-1.4.9,10.124,10.124,0,0,1-2.608.274.5.5,0,0,0,0,1q.234.014.467.023a16.623,16.623,0,0,1-2.047.2,39.48,39.48,0,0,1-4.56-.159,20.312,20.312,0,0,1-8.75-2.444c-2.151-1.263-4.222-3.13-4.888-5.622a5.061,5.061,0,0,1,2.245-5.886,8.065,8.065,0,0,1,3.558-.716c1.369-.032,2.737.071,4.106.023a24.32,24.32,0,0,0,4.713-.63,31.979,31.979,0,0,0,4.4-1.466,16.719,16.719,0,0,1,4.232-1.256,11.618,11.618,0,0,1,4.337.442c1.478.4,2.9.973,4.338,1.506a46.207,46.207,0,0,0,4.48,1.426,47.63,47.63,0,0,0,9.4,1.4c2.886.159,5.831.277,8.369,1.823a6.784,6.784,0,0,1,1.167.9.192.192,0,0,0,.074.206c.569.42,1.122.859,1.695,1.274l1.715,1.242c1.143.827,2.294,1.645,3.434,2.476,2.246,1.636,4.478,3.291,6.627,5.053a76.111,76.111,0,0,1,6.2,5.625c1.942,1.986,3.727,4.117,5.545,6.215a61.363,61.363,0,0,0,5.713,5.956c.278.245.564.476.858.7a.427.427,0,0,0,.182.078.327.327,0,0,0,.089.134,17.121,17.121,0,0,0,4.979,3.246,24.925,24.925,0,0,0,5.867,1.638c1.164.187,2.336.329,3.513.4a.574.574,0,0,0,.569-.568A.58.58,0,0,0-1941.7-712.74Z" transform="translate(-277.165)" fill="#161615"/>
    <path id="Path_33" data-name="Path 33" d="M-2153.983-581.476a8.156,8.156,0,0,0-1.651-.085c-.524-.023-1.046-.068-1.567-.129-.956-.112-1.984-.3-2.966-.5-2.054-.418-4.088-.95-6.164-1.256a23.494,23.494,0,0,0-3.555-.257.365.365,0,0,0,0,.73,34.25,34.25,0,0,1,6.119,1.063c2.032.484,4.055,1.031,6.126,1.328.595.086,1.192.156,1.792.2q.428.03.858.042a3.011,3.011,0,0,0,1.007-.08A.553.553,0,0,0-2153.983-581.476Z" transform="translate(-183.03 -143.79)" fill="#161615"/>
    <g id="Group_29" data-name="Group 29" transform="translate(-2336.61 -724.947)">
      <path id="Path_34" data-name="Path 34" d="M-1982.966-534.11h0c-.108.037-.057.023-.017.007h0Z" transform="translate(1996.116 539.446)" fill="#161615"/>
      <path id="Path_35" data-name="Path 35" d="M-1977.729-537.985c.016-.023.028-.042,0,0Z" transform="translate(1991.657 542.726)" fill="#161615"/>
      <path id="Path_36" data-name="Path 36" d="M-2050.1-564.484a.632.632,0,0,0-.618-.618,60.191,60.191,0,0,1-11.1-1.716q-1.539-.384-3.051-.86a.423.423,0,0,0-.513.291.425.425,0,0,0,.292.513,54.4,54.4,0,0,0,11.138,2.685q1.48.191,2.969.3a.333.333,0,0,0-.116.184c-.015.065-.035.127-.053.191l-.007.016c-.013.027-.027.054-.041.081-.059.114-.114.229-.182.338-.033.053-.073.1-.106.153l.02-.03c-.007.01-.015.021-.021.028l-.061.069a2.745,2.745,0,0,1-.28.257l-.076.053q-.084.056-.173.1c-.055.03-.111.057-.167.083l.018-.006-.034.013h0l-.052.02a2.374,2.374,0,0,1-.359.094l-.028,0-.038,0a2.041,2.041,0,0,1-.218,0,.563.563,0,0,0-.559.559.57.57,0,0,0,.559.559,2.56,2.56,0,0,0,1.851-.733,2.584,2.584,0,0,0,.545-.758,1.88,1.88,0,0,0,.171-.492,3.067,3.067,0,0,0,.038-.512.38.38,0,0,0-.153-.3A.635.635,0,0,0-2050.1-564.484Z" transform="translate(2065.396 567.695)" fill="#161615"/>
    </g>
    <path id="Path_37" data-name="Path 37" d="M-2085-559.209c-.615.186-.991.435-1.573.586a2.863,2.863,0,0,1-1.528-.084c-1.188-.329-2.361-.715-3.545-1.057-2.385-.689-4.782-1.331-7.2-1.883-1.37-.312-2.763-.472-4.149-.7a.236.236,0,0,0-.125.455c1.228.358,2.427.816,3.662,1.15s2.466.683,3.7,1.024,2.438.69,3.651,1.053,2.4.762,3.611,1.121a4.273,4.273,0,0,0,2.123.152,4.422,4.422,0,0,0,1.895-.932C-2084.065-558.665-2084.515-559.355-2085-559.209Z" transform="translate(-239.338 -161.749)" fill="#161615"/>
    <path id="Path_38" data-name="Path 38" d="M-2344.122-631.884a4.224,4.224,0,0,0-.473-.261c-.18-.076-.368-.136-.552-.2q-.5-.175-.991-.347-.974-.337-1.954-.658-1.979-.646-3.974-1.24a39.115,39.115,0,0,0-8.044-1.783,16.728,16.728,0,0,0-2.145-.033.2.2,0,0,0-.01-.024,13.48,13.48,0,0,1-1.285-2.965,10.422,10.422,0,0,1-.342-3.213c.01-.226-.315-.212-.343,0-.017.135-.048.264-.056.4s-.014.27-.017.4q-.008.421.021.842a10.122,10.122,0,0,0,.26,1.693,9.417,9.417,0,0,0,.483,1.466.77.77,0,0,0-.41-.038l-.187.031a22.084,22.084,0,0,1-.364-2.773c-.04-.6-.06-1.2-.042-1.8a4.824,4.824,0,0,1,.081-.793,5.737,5.737,0,0,1,.266-.781.255.255,0,0,0-.423-.246,2.735,2.735,0,0,0-.549,1.651,14.594,14.594,0,0,0-.031,1.891,16.942,16.942,0,0,0,.386,2.961c-2.239.371-4.477.75-6.72,1.1-1.22.191-2.4.35-3.65.424-.625.037-1.252.051-1.878.032q-.423-.012-.844-.045-.2-.016-.406-.037l-.2-.023-.123-.015a12.323,12.323,0,0,1-3.159-.836l-.117-.051-.123-.056q-.183-.085-.363-.176-.389-.2-.76-.431a6.911,6.911,0,0,1-1.168-.893,7.154,7.154,0,0,1-1.712-2.368c-.022-.047-.043-.1-.063-.143-.008-.021-.043-.109-.044-.111q-.068-.175-.126-.354a6.794,6.794,0,0,1-.194-.724c-.023-.111-.042-.223-.06-.335l-.015-.112q-.01-.093-.017-.186a5.987,5.987,0,0,1-.012-.749c.006-.126.018-.251.03-.376,0-.014,0-.024,0-.033s0-.019.006-.032c.01-.058.019-.116.03-.174a5.986,5.986,0,0,1,.185-.737q.044-.139.1-.275c.02-.055.042-.109.063-.163l.012-.031.015-.033c.107-.23.219-.456.348-.674q.164-.278.353-.541c.034-.048.069-.1.1-.142l.021-.028.025-.03c.088-.106.176-.213.268-.316a8.386,8.386,0,0,1,1.017-.957l.084-.065.145-.105q.134-.1.271-.186.312-.2.64-.383a7.267,7.267,0,0,1,1.332-.572,11.123,11.123,0,0,1,1.655-.408c.3-.05.439-.068.75-.1q.427-.041.856-.056a18.659,18.659,0,0,1,3.411.218c1.219.189,2.424.465,3.622.758s2.4.6,3.6.863c1.241.267,2.495.473,3.755.627a54.556,54.556,0,0,0,7.5.377,62.489,62.489,0,0,0,7.491-.51c.609-.084,1.222-.127,1.834-.178.405-.034.417-.658,0-.64-.646.027-1.292.057-1.939.045s-1.294-.014-1.943-.009c-1.3.009-2.593.055-3.889.069a71.407,71.407,0,0,1-7.67-.263c-1.251-.121-2.418-.279-3.664-.51-1.14-.211-2.268-.481-3.394-.759a.6.6,0,0,0,.025-.105.614.614,0,0,0-.445-.681,8.06,8.06,0,0,1-1.165-.291q-.143-.048-.283-.1l-.157-.062-.025-.011c-.192-.087-.381-.18-.565-.282q-.249-.139-.486-.3c-.083-.056-.164-.114-.245-.173l-.026-.019c-.052-.04-.1-.081-.152-.123a6.891,6.891,0,0,1-.859-.871l-.028-.035-.072-.1q-.079-.109-.153-.222a5.651,5.651,0,0,1-.332-.578q-.027-.055-.054-.112l-.039-.086c-.011-.029-.047-.114-.043-.1q-.022-.058-.044-.116a5.8,5.8,0,0,1-.195-.653q-.032-.136-.057-.273c-.01-.051-.017-.1-.026-.153l0-.029s0-.01,0-.018a5.882,5.882,0,0,1-.042-.649,5.737,5.737,0,0,1,.025-.587c0-.047.01-.093.015-.139,0-.012,0-.024,0-.03.02-.122.041-.243.068-.363a4.436,4.436,0,0,1,.369-1.064,4.887,4.887,0,0,1,.312-.53c.05-.074.1-.146.155-.217l.007-.01.023-.027c.038-.045.075-.091.114-.135a5.637,5.637,0,0,1,.407-.42q.1-.09.2-.175l.112-.094.083-.066a7.581,7.581,0,0,1,.972-.616,8.432,8.432,0,0,1,1-.46c.379-.146.762-.279,1.151-.4.89-.268,1.8-.469,2.713-.657,1.117-.23,2.249-.413,3.381-.552a24.948,24.948,0,0,1,3.517-.22.32.32,0,0,0,0-.64c-1.107-.02-2.217-.05-3.324-.017a30.686,30.686,0,0,0-3.292.279,18.12,18.12,0,0,0-5.5,1.464,6.487,6.487,0,0,0-3.514,3.862,6.36,6.36,0,0,0,.8,5.294,7.018,7.018,0,0,0,1.7,1.746,23.018,23.018,0,0,0-3.8-.441,11.966,11.966,0,0,0-6.68,1.613,8.15,8.15,0,0,0-3.64,4.778,7.349,7.349,0,0,0,1.395,6.109,10.215,10.215,0,0,0,5.637,3.606,18.081,18.081,0,0,0,6.131.407,12.239,12.239,0,0,0,2.37.761c.922.227,1.856.4,2.793.558,1.885.311,3.783.534,5.66.891,3.895.741,7.682,1.992,11.623,2.5a33.57,33.57,0,0,0,3.376.252,21.287,21.287,0,0,0,3.446-.142c.317-.043.3-.572,0-.627a27.377,27.377,0,0,0-3.056-.322c-1-.067-2-.15-3-.271a49.528,49.528,0,0,1-5.695-1.116c-1.894-.461-3.779-.964-5.689-1.358-1.855-.383-3.735-.619-5.606-.909-1.036-.16-2.07-.339-3.092-.573l-.067-.016c1.98-.292,3.953-.651,5.927-.976l1.879-.309a.6.6,0,0,0,.44-.451,6.991,6.991,0,0,0,.46.691,12.162,12.162,0,0,0-1.9.3c-.458.113-.263.8.194.7a16.257,16.257,0,0,1,7.726.643c2.607.717,5.191,1.539,7.754,2.4q1.089.365,2.173.742.552.191,1.1.386l.513.183a3.418,3.418,0,0,0,.607.132.556.556,0,0,0,.647-.318A.55.55,0,0,0-2344.122-631.884Z" transform="translate(0 -76.512)" fill="#161615"/>
    <path id="Path_39" data-name="Path 39" d="M-2080.981-460.309a5.205,5.205,0,0,0-1.113-.34q-.531-.125-1.062-.248-1.044-.24-2.091-.469-2.114-.458-4.237-.873c-2.846-.557-5.716-1-8.589-1.393-1.619-.219-3.242-.391-4.868-.555-.356-.036-.441.569-.085.629,2.834.479,5.66,1.013,8.484,1.55s5.628,1.115,8.427,1.736q1.179.262,2.356.532.588.136,1.176.275a6.321,6.321,0,0,0,1.305.247A.59.59,0,0,0-2080.981-460.309Z" transform="translate(-239.372 -244.315)" fill="#161615"/>
    <path id="Path_40" data-name="Path 40" d="M-2084.415-445.913a8.176,8.176,0,0,0-1.9-.834c-.639-.216-1.288-.4-1.94-.579-1.308-.356-2.629-.643-3.963-.878a53.009,53.009,0,0,0-8.131-.787,36.182,36.182,0,0,0-4.555.163.585.585,0,0,0-.568.568.575.575,0,0,0,.568.568,76.252,76.252,0,0,1,8.007.116,62.607,62.607,0,0,1,7.876,1.176c.733.154,1.458.335,2.188.5a10.619,10.619,0,0,0,2.309.394A.223.223,0,0,0-2084.415-445.913Z" transform="translate(-237.504 -257.09)" fill="#161615"/>
    <path id="Path_41" data-name="Path 41" d="M-2350.577-472.779c-.324-.079-.644-.175-.973-.226s-.665-.107-1-.169a17.155,17.155,0,0,1-1.953-.471,7.9,7.9,0,0,1-3.163-1.777,7.328,7.328,0,0,1-.6-.659l-.055-.069-.013-.018c-.041-.056-.083-.112-.123-.169q-.138-.195-.263-.4a7.958,7.958,0,0,1-.414-.76c-.03-.063-.059-.126-.087-.19l-.042-.1-.013-.032c-.054-.14-.108-.279-.156-.421a8.162,8.162,0,0,1-.241-.865c-.032-.146-.062-.293-.088-.44q-.018-.1-.033-.207h0c-.006-.046-.011-.091-.016-.137a8.086,8.086,0,0,1,.01-1.787c0-.02,0-.04.008-.061s.011-.073.013-.083q.022-.133.048-.265.048-.234.113-.465a4.905,4.905,0,0,1,.33-.868,3.926,3.926,0,0,1,.491-.782,3.557,3.557,0,0,1,.318-.335c.128-.118.228-.255.363-.367.248-.206-.018-.68-.324-.556a3.885,3.885,0,0,0-.463.185,2.776,2.776,0,0,0-.408.313,4.3,4.3,0,0,0-.661.735,5.38,5.38,0,0,0-.815,1.786,7.938,7.938,0,0,0,.006,3.919,8.621,8.621,0,0,0,1.83,3.538,8.4,8.4,0,0,0,3.457,2.315,14.533,14.533,0,0,0,2.281.632c.4.08.795.148,1.194.211a11.731,11.731,0,0,0,1.294.108A.546.546,0,0,0-2350.577-472.779Z" transform="translate(-22.552 -226.41)" fill="#161615"/>
    <path id="Path_42" data-name="Path 42" d="M-2249.541-393.9a31.594,31.594,0,0,0-3.1-.871q-1.541-.391-3.087-.765-3.11-.753-6.236-1.438-6.222-1.364-12.515-2.336c-.6-.093-1.208-.163-1.815-.235s-1.2-.107-1.8-.175-1.176-.083-1.762-.145c-.617-.066-1.232-.151-1.846-.235-.152-.021-.221.209-.065.234.535.087,1.068.178,1.6.281s1.025.244,1.54.361,1.028.236,1.539.367,1.032.225,1.545.35c1.038.253,2.1.417,3.151.63s2.075.422,3.112.637l1.81.377a5.992,5.992,0,0,0-6.02,3.163,5.148,5.148,0,0,0-.378,3.712,8.6,8.6,0,0,0,2.015,3.286,9.177,9.177,0,0,0,1.558,1.363,2.855,2.855,0,0,0,2.047.676.374.374,0,0,0,.267-.2c1.977.7,3.981,1.322,5.99,1.932q3.33,1.01,6.663,2.007,1.9.564,3.806,1.118a.635.635,0,0,0,.773-.439.64.64,0,0,0-.439-.773c-4.488-1.282-8.98-2.557-13.5-3.715-1.148-.294-2.307-.548-3.47-.776a9.9,9.9,0,0,0-1.286-.784q-.174-.11-.341-.23c-.048-.034-.1-.07-.143-.105l-.008-.006-.1-.08c-.214-.175-.419-.362-.615-.557s-.37-.384-.544-.586q-.125-.145-.245-.294l-.107-.135-.039-.051-.081-.109c-.167-.228-.325-.463-.469-.707q-.112-.189-.212-.385-.046-.09-.089-.182l-.042-.092-.012-.026,0-.009a4.728,4.728,0,0,1-.256-.833c-.014-.065-.025-.131-.036-.2l0-.011c0-.023-.005-.046-.007-.069q-.02-.2-.02-.4c0-.134,0-.268.016-.4,0-.031.005-.061.008-.092,0,0,0-.023,0-.041l.005-.039c.007-.041.013-.081.021-.122a4.842,4.842,0,0,1,.212-.777c.019-.051.038-.1.059-.153,0-.009.039-.089.046-.1q.086-.184.185-.361t.213-.346c.062-.092.168-.241.209-.295a5.044,5.044,0,0,1,1.089-1.025,8.88,8.88,0,0,1,3.429-1.247.253.253,0,0,0,.053-.458c3.478.729,6.951,1.479,10.407,2.308q1.754.421,3.5.863c1.165.295,2.323.641,3.509.843a.586.586,0,0,0,.7-.4A.581.581,0,0,0-2249.541-393.9Z" transform="translate(-89.147 -298.22)" fill="#161615"/>
    <path id="Path_43" data-name="Path 43" d="M-2050.7-348.583a5.447,5.447,0,0,0-.282-.549,4.4,4.4,0,0,0-.409-.523q-.4-.475-.811-.931-.655-.717-1.356-1.391a.558.558,0,0,0,.45-.531c.023-.2.051-.409.067-.614a.641.641,0,0,0-.633-.633c-5-.133-9.991-.517-14.978-.915-1.406-.112-2.811-.227-4.215-.361-.381-.036-.472.607-.091.673,2.5.432,5,.806,7.513,1.084s5.014.465,7.528.6q1.853.1,3.709.163l.015.081a.309.309,0,0,0-.187.519q.84.892,1.6,1.855.36.459.7.932a6.043,6.043,0,0,0,.372.509c.143.16.3.31.456.458A.354.354,0,0,0-2050.7-348.583Z" transform="translate(-264.649 -336.128)" fill="#161615"/>
    <path id="Path_44" data-name="Path 44" d="M-2049.492-264.549a31.594,31.594,0,0,0-6.422-2.914q-3.519-1.276-7.04-2.547a96.112,96.112,0,0,0-13.887-4.17,46.113,46.113,0,0,0-8.064-.891c-.469-.009-.463.7,0,.725a58.573,58.573,0,0,1,13.962,2.907c2.289.718,4.551,1.518,6.806,2.337q3.5,1.27,6.994,2.528a33.748,33.748,0,0,1,7.018,3.109.633.633,0,0,0,.859-.225A.642.642,0,0,0-2049.492-264.549Z" transform="translate(-254.51 -403.385)" fill="#161615"/>
    <path id="Path_45" data-name="Path 45" d="M-1777.436-212.18c-4.728-.673-9.4-1.788-14.177-2.088a37.349,37.349,0,0,0-7.154.275c-2.379.308-4.738.746-7.109,1.107-4.821.735-9.672,1.236-14.539,1.546s-9.765.415-14.647.3c-2.369-.056-4.74-.151-7.1-.337a19.827,19.827,0,0,1-6-1.228,11.539,11.539,0,0,1-1.447-.69c-.148-.087-.332.131-.189.246a11.951,11.951,0,0,0,5.526,2.334,59.031,59.031,0,0,0,6.8.675,140.321,140.321,0,0,0,14.72.071c4.912-.216,9.811-.677,14.682-1.34,4.753-.647,9.5-1.792,14.321-1.772,4.793.02,9.488,1.086,14.2,1.849q.892.144,1.785.272a.654.654,0,0,0,.779-.442A.638.638,0,0,0-1777.436-212.18Z" transform="translate(-452.512 -454.474)" fill="#161615"/>
    <path id="Path_46" data-name="Path 46" d="M-2188.709-667.231c-1.468-.059-2.94-.034-4.409-.082s-2.918-.1-4.377-.155a76.163,76.163,0,0,0-8.757.04,37.958,37.958,0,0,0-4.887.689c-.377.08-.211.63.157.57a45.665,45.665,0,0,1,8.654-.444c2.906.082,5.8.329,8.706.463a42.283,42.283,0,0,0,4.913.066.587.587,0,0,0,.573-.573A.583.583,0,0,0-2188.709-667.231Z" transform="translate(-148.446 -73.242)" fill="#161615"/>
    <path id="Path_47" data-name="Path 47" d="M-2177.141-599.272a.13.13,0,0,0-.127-.127.128.128,0,0,0-.126.127l.122,1.374a.133.133,0,0,0,.129.129.13.13,0,0,0,.129-.129Z" transform="translate(-177.01 -130.585)" fill="#161615"/>
    <path id="Path_48" data-name="Path 48" d="M-2175.577-634.433a15.513,15.513,0,0,0-.507,2.495,14.122,14.122,0,0,0-.04,2.562c.011.174.276.177.273,0a15.712,15.712,0,0,1,.72-4.934C-2175.043-634.594-2175.494-634.718-2175.577-634.433Z" transform="translate(-178.045 -100.981)" fill="#161615"/>
    <path id="Path_49" data-name="Path 49" d="M-2182.246-615.206a10.868,10.868,0,0,1-.338-6.481.221.221,0,0,0-.426-.117,10.519,10.519,0,0,0,.1,6.782.354.354,0,0,0,.425.241A.348.348,0,0,0-2182.246-615.206Z" transform="translate(-171.855 -111.609)" fill="#161615"/>
    <path id="Path_50" data-name="Path 50" d="M-2073.127-614.17a17.119,17.119,0,0,0-.445,2.931q-.021.325-.026.651c0-.041-.008-.083-.011-.124a8.791,8.791,0,0,1,0-1.281c.033-.441.138-.863.2-1.3a.258.258,0,0,0-.5-.137,5.891,5.891,0,0,0-.263,1.365,8.83,8.83,0,0,0-.047,1.387,7.546,7.546,0,0,0,.63,2.7c.107.248.5.1.478-.143a.222.222,0,0,0,.217-.231c-.028-.467-.021-.935-.043-1.4-.023-.482-.035-.963-.026-1.446a15.132,15.132,0,0,1,.33-2.831C-2072.561-614.356-2073.048-614.495-2073.127-614.17Z" transform="translate(-263.79 -118.006)" fill="#161615"/>
    <path id="Path_51" data-name="Path 51" d="M-2115.088-505.55a11.33,11.33,0,0,1-1.771-5.819.316.316,0,0,0-.631,0,11.766,11.766,0,0,0,1.823,6.157C-2115.436-504.848-2114.856-505.184-2115.088-505.55Z" transform="translate(-227.397 -204.374)" fill="#161615"/>
    <path id="Path_52" data-name="Path 52" d="M-1969.711-484.359a.215.215,0,0,0-.263.149l-.375,2.5a.22.22,0,0,0,.149.263.215.215,0,0,0,.263-.149q.187-1.249.375-2.5A.22.22,0,0,0-1969.711-484.359Z" transform="translate(-351.158 -227.343)" fill="#161615"/>
    <path id="Path_53" data-name="Path 53" d="M-1957.1-612.041a10.807,10.807,0,0,0-.852,1.454q-.374.725-.684,1.482a16.742,16.742,0,0,0-.947,3.2c-.063.327.443.462.5.137a18.112,18.112,0,0,1,.834-3.154,15.838,15.838,0,0,1,.634-1.506c.241-.5.527-.966.783-1.454A.154.154,0,0,0-1957.1-612.041Z" transform="translate(-360.209 -119.893)" fill="#161615"/>
    <path id="Path_54" data-name="Path 54" d="M-1973.883-390.541a12.89,12.89,0,0,1-1.7-5.1.282.282,0,0,0-.273-.273.275.275,0,0,0-.273.273,13.586,13.586,0,0,0,1.706,5.421A.313.313,0,0,0-1973.883-390.541Z" transform="translate(-346.299 -301.737)" fill="#161615"/>
    <path id="Path_55" data-name="Path 55" d="M-2112.683-401.128a23.059,23.059,0,0,1-.348-3.572.211.211,0,0,0-.422,0,23.765,23.765,0,0,0,.4,3.673C-2113.006-400.784-2112.641-400.888-2112.683-401.128Z" transform="translate(-230.792 -294.181)" fill="#161615"/>
    <path id="Path_56" data-name="Path 56" d="M-2217.616-439.092a18.98,18.98,0,0,1-.621-2.006l.058.107a.254.254,0,0,0,.172.121c.017.095.034.19.053.284.038.191.329.11.292-.081-.023-.117-.04-.234-.061-.352a.26.26,0,0,0-.01-.233l-.043-.078a19.268,19.268,0,0,1-.018-5.738.2.2,0,1,0-.4-.054,19.7,19.7,0,0,0-.006,5.025l-.289-.528a.232.232,0,0,0-.079-.082,17.818,17.818,0,0,1-.2-2.038.308.308,0,0,0-.616,0,18.43,18.43,0,0,0,1.078,5.843.367.367,0,0,0,.44.25A.36.36,0,0,0-2217.616-439.092Z" transform="translate(-141.692 -258.508)" fill="#161615"/>
    <path id="Path_57" data-name="Path 57" d="M-2086.534-324.987a5.8,5.8,0,0,1-1.8-5.915c.081-.255-.311-.358-.4-.109-.054.156-.1.313-.142.471-.01-.182-.02-.363-.028-.545-.017-.343-.547-.347-.536,0a42.6,42.6,0,0,0,.545,5.432c.047.3.484.166.445-.123q-.05-.372-.094-.744a5.544,5.544,0,0,0,1.536,2.008.345.345,0,0,0,.474,0A.338.338,0,0,0-2086.534-324.987Z" transform="translate(-250.99 -356.053)" fill="#161615"/>
    <path id="Path_58" data-name="Path 58" d="M-2010.533-298.58a27.042,27.042,0,0,1-3.367-5.749c-.161-.376-.828-.1-.667.281a26.448,26.448,0,0,0,3.383,5.849.39.39,0,0,0,.516.135A.38.38,0,0,0-2010.533-298.58Z" transform="translate(-313.947 -378.626)" fill="#161615"/>
    <path id="Path_59" data-name="Path 59" d="M-1838.032-430.157a29.682,29.682,0,0,0-3.644-10.172,28.679,28.679,0,0,0-3.619-4.931c-.292-.319-.764.156-.474.474a28.413,28.413,0,0,1,5.514,8.979,29.842,29.842,0,0,1,2,10.381,28.515,28.515,0,0,1-.57,5.956c-.073.358.472.512.551.152A29.18,29.18,0,0,0-1838.032-430.157Z" transform="translate(-455.871 -260.146)" fill="#161615"/>
    <path id="Path_60" data-name="Path 60" d="M-1786.774-481.224l-2.515-3.737c-.046-.068-.157,0-.111.065l2.481,3.757C-1786.86-481.048-1786.713-481.134-1786.774-481.224Z" transform="translate(-503.352 -226.817)" fill="#161615"/>
    <path id="Path_61" data-name="Path 61" d="M-1752.642-494.524c-1.665-.611-3.316-1.274-4.952-1.959s-3.222-1.428-4.789-2.233a68.662,68.662,0,0,1-8.995-5.529q-2.41-1.751-4.658-3.71c-.3-.261-.74.174-.439.439a69.673,69.673,0,0,0,8.554,6.446,69.953,69.953,0,0,0,9.419,5.063c.93.41,1.866.825,2.823,1.167s1.9.655,2.861.949C-1752.408-493.767-1752.252-494.381-1752.642-494.524Z" transform="translate(-514.149 -207.434)" fill="#161615"/>
    <path id="Path_62" data-name="Path 62" d="M-1705.592-562.55q-.356-1.119-.8-2.209a.3.3,0,0,0-.36-.2.3.3,0,0,0-.2.36,30.033,30.033,0,0,1,1.935,7.847q.12,1.148.161,2.3c.017.475.763.476.74,0A31.963,31.963,0,0,0-1705.592-562.55Z" transform="translate(-572.698 -159.542)" fill="#161615"/>
    <path id="Path_63" data-name="Path 63" d="M-1555.482-416.7a.285.285,0,0,0-.348-.2,63.378,63.378,0,0,1-13.4,3.884q-1.949.338-3.916.551c-.276.03-.281.465,0,.437a63.65,63.65,0,0,0,13.771-2.96q1.868-.626,3.694-1.367A.293.293,0,0,0-1555.482-416.7Z" transform="translate(-685.084 -284.081)" fill="#161615"/>
    <path id="Path_64" data-name="Path 64" d="M-1555.838-394.888c-3.514.42-7.026.917-10.506,1.561q-1.48.274-2.956.572a.368.368,0,0,0-.255.449.372.372,0,0,0,.449.255c3.432-.658,6.88-1.244,10.34-1.73q1.463-.206,2.928-.387a.371.371,0,0,0,.36-.36A.362.362,0,0,0-1555.838-394.888Z" transform="translate(-688.269 -302.603)" fill="#161615"/>
  </g>
</svg>
