<?xml version="1.0" encoding="utf-8"?>
<!-- Generator: Adobe Illustrator 24.0.1, SVG Export Plug-In . SVG Version: 6.00 Build 0)  -->
<svg version="1.1" id="Layer_1" xmlns="http://www.w3.org/2000/svg" xmlns:xlink="http://www.w3.org/1999/xlink" x="0px" y="0px"
	 viewBox="0 0 40 40" style="enable-background:new 0 0 40 40;" xml:space="preserve">
<style type="text/css">
	.st0{fill:#FFFFFF;}
</style>
<g>
	<title>arrow-right</title>
	<path class="st0" d="M12.3,32c6.5-8,13.7-15.7,21.6-22.5c1-1-0.6-2.7-1.5-1.5c-7.8,6.9-14.9,14.3-21.6,22.5
		C9.9,31.5,11.4,33.2,12.3,32L12.3,32z"/>
	<path class="st0" d="M12.3,30.7c-1.1-4.4-1.9-9-2.1-13.6c0-1.5-2.3-1.5-2.3,0c0.2,4.8,1,9.5,2.3,14.1c0.4,0.6,1,0.8,1.5,0.6
		C12,31.6,12.3,31.3,12.3,30.7L12.3,30.7z"/>
</g>
</svg>
