<svg xmlns="http://www.w3.org/2000/svg" width="159.407" height="149.515" viewBox="0 0 159.407 149.515">
  <g id="Group_41" data-name="Group 41" transform="translate(2255.562 958.617) rotate(30)">
    <path id="Path_65" data-name="Path 65" d="M-1933.78,358.825a23.961,23.961,0,0,0-2.7-.85,19.252,19.252,0,0,0-2.827-.446c-1.671-.145-3.361.061-5.026-.158a5.167,5.167,0,0,1-2.343-.855.454.454,0,0,0-.616.162.461.461,0,0,0,.162.617,7.625,7.625,0,0,0,4.733,1.058c.839-.016,1.677-.059,2.517-.033a21.917,21.917,0,0,1,2.821.274,18.031,18.031,0,0,1,3.133.767C-1933.589,359.48-1933.448,358.948-1933.78,358.825Z" transform="translate(-392.661 -65.921)" fill="#161615"/>
    <path id="Path_66" data-name="Path 66" d="M-2316.5,281.691c-.485-.159-.952-.363-1.439-.517s-.974-.305-1.463-.452q-1.468-.442-2.951-.83a35.9,35.9,0,0,0-6.077-1.051,27.474,27.474,0,0,0-6.073.133,12.558,12.558,0,0,0-5.325,1.748,5.958,5.958,0,0,0-2.759,4.38,6.941,6.941,0,0,0,2.032,4.82c.58.689,1.2,1.348,1.834,1.991a13.319,13.319,0,0,0,2.183,1.853,12.275,12.275,0,0,0,5.161,1.72c1.876.25,3.777.271,5.665.342l6.29.236,1.592.06a.609.609,0,0,0,.6-.6.617.617,0,0,0-.6-.6l-6.177-.232c-1.924-.072-3.854-.105-5.774-.245-.427-.031-.854-.07-1.279-.121l-.127-.016-.12-.016-.288-.042q-.314-.049-.627-.109c-.423-.082-.843-.182-1.257-.3q-.286-.084-.567-.182c-.1-.035-.2-.071-.293-.108l-.146-.057-.08-.033-.035-.015a9.373,9.373,0,0,1-1.113-.578,8.068,8.068,0,0,1-1.028-.743,22.9,22.9,0,0,1-1.935-1.909c-.284-.3-.567-.61-.84-.924-.137-.158-.272-.318-.4-.481s-.195-.245-.341-.449a8.158,8.158,0,0,1-.655-1.073c-.045-.09-.087-.181-.129-.272l-.015-.036c-.021-.051-.041-.1-.059-.153a4.942,4.942,0,0,1-.173-.57c-.023-.1-.041-.194-.06-.292l-.007-.036v-.01c-.006-.05-.011-.1-.016-.15a4.113,4.113,0,0,1-.005-.628c0-.026.019-.173.018-.186.013-.086.029-.172.048-.257a4.422,4.422,0,0,1,.183-.612l.029-.074c0,.011.043-.1.046-.1.037-.08.076-.158.117-.236a5.363,5.363,0,0,1,.32-.528q.042-.061.085-.121l.046-.062q.084-.107.173-.209.194-.223.411-.427a6.994,6.994,0,0,1,2.037-1.271,13.817,13.817,0,0,1,2.549-.718,25.081,25.081,0,0,1,5.74-.368,42.665,42.665,0,0,1,5.733.693c1.941.349,3.864.786,5.774,1.276.47.121.948.194,1.418.318A.287.287,0,0,0-2316.5,281.691Z" transform="translate(-57.41)" fill="#161615"/>
    <path id="Path_67" data-name="Path 67" d="M-2159.613,392.364a3.636,3.636,0,0,0-.682-.254c-.239-.062-.484-.1-.725-.152-.439-.092-.878-.19-1.315-.295-.895-.216-1.78-.468-2.656-.747a32.657,32.657,0,0,1-5-2.048q-1.378-.708-2.689-1.536c-.372-.235-.7.345-.343.586a36.381,36.381,0,0,0,10.036,4.708c.5.144.994.279,1.5.4a5.151,5.151,0,0,0,1.636.222.49.49,0,0,0,.455-.347A.475.475,0,0,0-2159.613,392.364Z" transform="translate(-201.119 -92.068)" fill="#161615"/>
    <path id="Path_68" data-name="Path 68" d="M-2060.789,432.992a33.654,33.654,0,0,0-2.351-2.977,19.237,19.237,0,0,0-2.63-2.559,12.485,12.485,0,0,0-3.3-1.9,19.844,19.844,0,0,0-3.925-.912,25.565,25.565,0,0,1-4.477-.95c-.268-.094-.459.346-.2.464a19.289,19.289,0,0,0,3.822,1.166,31.311,31.311,0,0,1,3.841.985,11.439,11.439,0,0,1,3.15,1.744l.106.084.164.133q.175.144.346.294c.229.2.453.407.673.617.438.416.855.854,1.257,1.3.461.515.9,1.048,1.332,1.589q.154.194.307.389l.171.22.057.073.012.016.026.034c.231.3.467.595.711.884a.572.572,0,0,0,.757.045A.572.572,0,0,0-2060.789,432.992Z" transform="translate(-282.022 -122.947)" fill="#161615"/>
    <path id="Path_69" data-name="Path 69" d="M-2110.791,487.124a4.366,4.366,0,0,0-.576-.148c-.225-.03-.453-.045-.679-.066-.389-.036-.779-.061-1.168-.089l-2.374-.168c-1.557-.112-3.114-.229-4.671-.344-3.15-.231-6.3-.507-9.449-.707-1.769-.112-3.537-.245-5.3-.371a.3.3,0,0,0-.3.3.3.3,0,0,0,.3.3c3.132.383,6.266.762,9.407,1.064q4.686.451,9.377.85,1.318.111,2.637.218c.439.036.879.078,1.319.1.226.013.452.025.678.037a3.793,3.793,0,0,0,.678-.056.474.474,0,0,0,.459-.405A.467.467,0,0,0-2110.791,487.124Z" transform="translate(-233.238 -175.154)" fill="#161615"/>
    <path id="Path_70" data-name="Path 70" d="M-2345.091,511.654a3.425,3.425,0,0,1-.353-.011l-.162-.013-.118-.017a2.8,2.8,0,0,1-.341-.071c-.052-.014-.1-.03-.154-.048-.018-.006-.144-.057-.137-.052a3.073,3.073,0,0,1-.295-.154c-.09-.054-.242-.157-.284-.19s-.169-.145-.238-.211c-.094-.091-.18-.188-.266-.286l-.026-.031-.043-.057q-.049-.068-.1-.138a3.494,3.494,0,0,1-.2-.337c-.027-.052-.052-.1-.076-.158,0-.01-.032-.08-.037-.094a3.845,3.845,0,0,1-.125-.413,4.629,4.629,0,0,1-.073-1.616,9.184,9.184,0,0,1,1.278-3.347q.168-.3.339-.591a7.516,7.516,0,0,0,.829.07.543.543,0,0,0,.144-1.062c-.117-.036-.235-.068-.354-.1a16.543,16.543,0,0,0,.816-1.668,6.268,6.268,0,0,0,.385-4.027c-.05-.179-.358-.151-.335.045.23,2.024-.812,3.783-1.866,5.459-.285-.043-.571-.081-.855-.123q-1.114-.167-2.23-.319-2.29-.312-4.588-.565-4.5-.492-9.026-.74t-9.053-.24q-4.531,0-9.054.27c-3.019.177-6.042.457-9.035.9a8.462,8.462,0,0,0-1.078.218.606.606,0,0,0-.569-.46,34.138,34.138,0,0,0-6.843.349,16.4,16.4,0,0,1-3.362.132c-.1-.009-.209-.021-.314-.033l-.046-.005-.046-.008-.156-.025q-.359-.061-.714-.15-.307-.077-.608-.176c-.208-.068-.5-.179-.626-.232a8.207,8.207,0,0,1-1.167-.623,6.016,6.016,0,0,1-1.013-.8,5.776,5.776,0,0,1-.829-.978q-.172-.258-.32-.532-.089-.164-.168-.333c-.018-.037-.035-.075-.052-.113a.46.46,0,0,0-.024-.054c-.012-.03-.025-.061-.037-.091a5.494,5.494,0,0,1-.413-2.5,4.8,4.8,0,0,1,.248-1.228c.032-.1.068-.192.105-.286l.016-.042.019-.04c.021-.046.042-.092.064-.138a5.951,5.951,0,0,1,.34-.61,5.428,5.428,0,0,1,.776-.977q.214-.221.445-.424c.169-.149.333-.28.454-.369a10.132,10.132,0,0,1,2.565-1.335,31.011,31.011,0,0,1,6.275-1.369,94.885,94.885,0,0,1,13.167-.619c2.237.008,4.473.034,6.709,0s4.465-.13,6.693-.343c.542-.052,1.077-.141,1.611-.24.372-.068.276-.647-.088-.648-1.145,0-2.287.054-3.432.076s-2.3.031-3.443.037c-2.275.01-4.55-.026-6.824-.047a107.068,107.068,0,0,0-13.647.49,38.311,38.311,0,0,0-6.6,1.254,10.377,10.377,0,0,0-5.145,3.144,6.618,6.618,0,0,0-1.317,2.523,6.556,6.556,0,0,0-.037,2.938,7.431,7.431,0,0,0,3.246,4.647,9.914,9.914,0,0,0,5.858,1.5c1.149-.044,2.287-.217,3.428-.348a32.378,32.378,0,0,1,3.521-.215c.575,0,1.151.007,1.726.013a.577.577,0,0,0,.47-.248.262.262,0,0,0,.153.058,18.219,18.219,0,0,0,2.241-.093c.748-.053,1.5-.1,2.244-.15q2.246-.148,4.494-.25c3-.131,6-.227,9.007-.236s6.039.063,9.054.215,6,.376,8.986.682q4.083.418,8.141,1.042-.126.209-.246.417a9.929,9.929,0,0,0-1.355,3.672,4.7,4.7,0,0,0,.849,3.484,3.286,3.286,0,0,0,3.364,1.392A.5.5,0,0,0-2345.091,511.654Z" transform="translate(0 -176.339)" fill="#161615"/>
    <path id="Path_71" data-name="Path 71" d="M-1945.641,521.538a.278.278,0,0,0-.46-.121,1.543,1.543,0,0,0-.268.586c-.069.178-.146.353-.228.526a9.127,9.127,0,0,1-.6,1.064,9.209,9.209,0,0,1-.591.8.532.532,0,0,0,0-.525.538.538,0,0,0-.724-.19,10.433,10.433,0,0,1-3.861,1.378,8.3,8.3,0,0,1-3.976-.8c-.582-.248-1.145-.529-1.7-.832a8.679,8.679,0,0,0-.617-1.5,7.361,7.361,0,0,0-.922-1.323,8.131,8.131,0,0,0-1.065-1.09q-.323-.268-.669-.506a.524.524,0,0,0-.711.186.532.532,0,0,0,.186.711c.116.089.333.272.479.407.187.173.368.352.54.539a5.245,5.245,0,0,1,.4.478c.151.208.268.428.4.648.12.2.242.4.35.612q.081.157.155.317c.025.053.048.107.072.161l.01.022c.014.035.028.07.042.1a7.91,7.91,0,0,1,.41,1.407c.02.1.037.21.053.316,0,.028.013.1.014.1q.011.1.019.191a8.083,8.083,0,0,1,.03.826,7.174,7.174,0,0,1-.16,1.478,9.773,9.773,0,0,1-1.093,2.9,15.533,15.533,0,0,1-4.2,4.6c-.871.666-1.783,1.275-2.712,1.858a30.009,30.009,0,0,1-2.917,1.645,14.128,14.128,0,0,1-3.439,1.172,7.186,7.186,0,0,1-3.473-.155c-.456-.138-.641.559-.2.709a8.65,8.65,0,0,0,4.038.3,10.469,10.469,0,0,0-.018,2.374,4.473,4.473,0,0,0,1.136,2.325,7.851,7.851,0,0,0,2.032,1.54,15.381,15.381,0,0,0,2.464,1.069c.461.159.928.3,1.4.435a10.411,10.411,0,0,0,1.536.374.563.563,0,0,0,.559-.494.579.579,0,0,0-.408-.625,10.5,10.5,0,0,0-1.217-.339c-.4-.106-.792-.218-1.184-.338a15.655,15.655,0,0,1-2.213-.837,5.721,5.721,0,0,1-3.241-3.042,7.932,7.932,0,0,1-.346-2.527,12.766,12.766,0,0,0,2.175-.631,28.251,28.251,0,0,0,6.093-3.4,17.624,17.624,0,0,0,4.866-4.906,10.339,10.339,0,0,0,1.669-6.5q-.046-.405-.127-.8a14.7,14.7,0,0,0,3.051,1.519,7.094,7.094,0,0,0,4.475-.04,11.95,11.95,0,0,0,2.343-1.1.518.518,0,0,0,.063-.047,10.88,10.88,0,0,1-.837.875c-.378.354.187.914.567.567a8.511,8.511,0,0,0,1.621-2.027,9.689,9.689,0,0,0,.563-1.148c.084-.2.161-.407.23-.614A1.265,1.265,0,0,0-1945.641,521.538Z" transform="translate(-367.254 -203.736)" fill="#161615"/>
    <path id="Path_72" data-name="Path 72" d="M-1970.907,460.823a.43.43,0,0,0-.57.034,10.219,10.219,0,0,0-.981,1.391c-.269.48-.523.968-.757,1.466-.478,1.018-.906,2.06-1.325,3.1-.207.514-.406,1.03-.61,1.545s-.433,1.07-.626,1.531c-.074.177-.187.439-.284.66q-.166.375-.342.747-.349.737-.735,1.456a18.553,18.553,0,0,1-1.107,1.817,12.262,12.262,0,0,1-.686-2.369,11.034,11.034,0,0,1-.174-1.733c-.013-.6.055-1.191.1-1.79a.293.293,0,0,0-.573-.078,8.673,8.673,0,0,0-.146,1.868,12.069,12.069,0,0,0,.163,1.873,10.925,10.925,0,0,0,.878,2.83c-.153.2-.31.393-.473.581a.3.3,0,0,0,.419.419c.127-.119.25-.241.37-.364.01.017.018.035.027.052.194.355.726.041.541-.316-.038-.074-.074-.15-.111-.225a18.674,18.674,0,0,0,2.854-4.52c.48-1.023.907-2.071,1.338-3.115s.8-1.966,1.265-2.983c.516-1.124,1.085-2.226,1.659-3.321A.437.437,0,0,0-1970.907,460.823Z" transform="translate(-365.205 -154.373)" fill="#161615"/>
    <path id="Path_73" data-name="Path 73" d="M-1826.863,403.039a34.179,34.179,0,0,1-7.494-1.839,34.838,34.838,0,0,1-6.737-3.514,73.258,73.258,0,0,0-6.294-3.935,25.008,25.008,0,0,0-7.31-2.293,45.026,45.026,0,0,1-7.616-1.642q-.21-.076-.419-.157a29.017,29.017,0,0,0-3.019-1.415c-1.147-.608-2.275-1.255-3.426-1.848a28.986,28.986,0,0,0-6.928-2.522,60.075,60.075,0,0,0-7.242-1.079c-4.792-.479-9.712-.759-14.289-2.382-.572-.2-1.138-.425-1.7-.658-.271-.113-.455.337-.2.472,4.318,2.282,9.313,2.819,14.093,3.334a78.954,78.954,0,0,1,8.956,1.285l-.057.008a39.575,39.575,0,0,0-4.176.9c-.47.125-.936.26-1.4.4a.5.5,0,0,0-.406-.071,73.07,73.07,0,0,1-10.525,2.025c-1.124.137-2.25.258-3.376.378a5.056,5.056,0,0,1-.363-4.661c.088-.2-.2-.376-.3-.175a5.343,5.343,0,0,0,.057,4.9c-2.292.243-4.585.488-6.863.842a51.4,51.4,0,0,0-5.976,1.25.249.249,0,0,0,.132.48,92.947,92.947,0,0,1,10.72-1.386c.881-.075,1.763-.148,2.645-.225a.251.251,0,0,0,.314-.028c2.64-.232,5.277-.5,7.891-.947.99-.169,1.976-.363,2.954-.591a25.478,25.478,0,0,0,2.952-.906.573.573,0,0,0,.29-.23c1.066-.26,2.14-.487,3.22-.672.682-.117,1.366-.216,2.054-.29a4.472,4.472,0,0,1,1.905.114,10.856,10.856,0,0,0,1.776.564c.245.084.5.15.744.228q.56.179,1.114.372,1.091.383,2.173.8c.544.209,1.083.43,1.619.657,1,.545,1.995,1.082,3.028,1.552a29.591,29.591,0,0,0,7.588,2.063,31.207,31.207,0,0,1,7.531,1.866,42.6,42.6,0,0,1,6.429,3.793,42.422,42.422,0,0,0,6.566,3.747,31.462,31.462,0,0,0,7.412,2.216q.97.16,1.948.25a.521.521,0,0,0,.517-.517A.53.53,0,0,0-1826.863,403.039Z" transform="translate(-424.308 -85.674)" fill="#161615"/>
    <path id="Path_74" data-name="Path 74" d="M-1868.411,689.154a.392.392,0,0,0-.384-.339c-.639-.011-1.282-.022-1.92.012s-1.256.12-1.877.2q-1.924.247-3.836.578c-2.506.433-5,.969-7.468,1.573-1.392.34-2.781.692-4.171,1.043-.388.1-.222.673.164.595,2.486-.506,4.972-1.028,7.468-1.486,2.469-.454,4.946-.886,7.44-1.185q1.066-.128,2.134-.238c.726-.074,1.449-.217,2.172-.323A.387.387,0,0,0-1868.411,689.154Z" transform="translate(-442.761 -347.824)" fill="#161615"/>
    <path id="Path_75" data-name="Path 75" d="M-1820.13,584.247a5.793,5.793,0,0,0-1.062-1.66c-.388-.469-.8-.918-1.231-1.347a23.748,23.748,0,0,0-2.873-2.418,36.481,36.481,0,0,0-7.01-3.831c-1.369-.588-2.755-1.139-4.138-1.692.582-.089,1.158-.2,1.735-.329.45-.1.363-.867-.111-.82-1.374.137-2.741.324-4.111.5a.535.535,0,0,0,.14-.235.566.566,0,0,0-.388-.683c-.572-.2-1.158-.364-1.735-.553s-1.152-.4-1.719-.622c-.519-.206-1.034-.445-1.559-.7a13.734,13.734,0,0,1-1.528-.908,6.639,6.639,0,0,1-.766-.573c-.254-.227-.477-.493-.737-.71a.224.224,0,0,0-.35.27,3.793,3.793,0,0,0,.568.754c.2.225.4.446.617.657a9.689,9.689,0,0,0,1.483,1.151,16.652,16.652,0,0,0,3.422,1.626c.6.222,1.2.444,1.817.625-.882.112-1.766.216-2.652.3-.72.065-1.443.1-2.165.14a.393.393,0,0,0-.182.053.365.365,0,0,0-.3-.125q-1.387.128-2.778.212c-.343-.411-.694-.818-1.074-1.191q-.725-.711-1.492-1.376a35.1,35.1,0,0,0-3.221-2.486c-.316-.215-.6.29-.3.508a31.372,31.372,0,0,1,3.075,2.518q.717.669,1.393,1.38c.225.236.454.468.683.7q-3.486.175-6.977.067-1.52-.049-3.036-.159a.376.376,0,0,0-.372.372.38.38,0,0,0,.372.372,74.074,74.074,0,0,0,10.693.183l.146-.009a.355.355,0,0,0,.316-.02c.858-.057,1.715-.136,2.57-.225a.538.538,0,0,0,.228-.076.349.349,0,0,0,.251.082c2.5-.106,5-.259,7.474-.584a.247.247,0,0,0,.114.338,73.667,73.667,0,0,1,7.4,3.51,29.508,29.508,0,0,1,5.319,3.733c0,.007,0,.014,0,.021a.453.453,0,0,0,.326.5.579.579,0,0,1,.3.128c-.05-.037.078.075.089.087s.037.041.055.062l.023.035a1.77,1.77,0,0,1,.093.167s.039.1.048.13c.021.066.037.133.054.2,0,.006.005.028.008.041,0,.034.006.069.007.1a2.659,2.659,0,0,1-.711,1.615,13.954,13.954,0,0,1-1.146,1.274.48.48,0,0,0-.327-.351,17.473,17.473,0,0,1-4.408-1.874,5.3,5.3,0,0,1-2.312-3.384,4.018,4.018,0,0,1-.011-1.158,3.238,3.238,0,0,1,.151-.617c.07-.2.179-.382.235-.586a.265.265,0,0,0-.44-.256,2.5,2.5,0,0,0-.518,1.113,4.276,4.276,0,0,0-.144,1.171,5.207,5.207,0,0,0,.622,2.357,7.739,7.739,0,0,0,3.62,3.155c.48.226.973.424,1.472.6a12.062,12.062,0,0,0,1.437.406,13.005,13.005,0,0,1-1.165.9c-.282.193-.572.374-.867.544a.485.485,0,0,0-.5.108,1.652,1.652,0,0,1-.158.122c-.218-.164-.62-.058-.592.275,0,0,0,.007,0,.01a4.412,4.412,0,0,1-1.22.178c-.938.022-1.883-.092-2.817-.157l-3.1-.216c-1.058-.074-2.118-.12-3.177-.187-1.185-.075-2.371-.132-3.555-.224-.412-.032-.407.6,0,.641,2.172.191,4.335.472,6.5.68l3.252.311c.95.091,1.909.226,2.864.229a3.694,3.694,0,0,0,2.618-.865c.179-.084.352-.183.518-.273a13.206,13.206,0,0,0,2.1-1.414,12.53,12.53,0,0,0,1.754-1.742,4.552,4.552,0,0,0,1-1.809l.065.077a16.019,16.019,0,0,0,1.291,1.574C-1820.557,584.94-1819.974,584.67-1820.13,584.247Z" transform="translate(-467.554 -245.025)" fill="#161615"/>
    <path id="Path_76" data-name="Path 76" d="M-1966.383,553.254a14.269,14.269,0,0,0-1.074-1.761,12.29,12.29,0,0,0-1.311-1.653.369.369,0,0,0-.577.445c.293.5.655.954.974,1.437s.623.979.9,1.491a10.159,10.159,0,0,1,.678,1.551q.134.4.23.812c.03.132.058.265.081.4.01.056.019.111.027.167,0,0,.013.1.015.121a6.939,6.939,0,0,1,.007,1.434c0,.027-.014.122-.016.143s-.015.1-.018.117q-.031.186-.072.371a5.99,5.99,0,0,1-.192.67c-.021.059-.042.117-.065.175l-.034.082c-.047.107-.1.213-.151.316a4.885,4.885,0,0,1-.371.6l-.043.058q-.047.059-.1.116-.119.139-.249.268t-.252.23l-.071.058c-.05.037-.1.074-.152.109a6.365,6.365,0,0,1-1.621.754,12.168,12.168,0,0,0-1.9.765.58.58,0,0,0-.205.782.584.584,0,0,0,.782.205c.283-.136.44-.2.75-.316.281-.107.566-.205.85-.306a9.025,9.025,0,0,0,1.714-.761,5.15,5.15,0,0,0,2.018-2.45A7.683,7.683,0,0,0-1966.383,553.254Z" transform="translate(-371.743 -229.865)" fill="#161615"/>
    <path id="Path_77" data-name="Path 77" d="M-1800.348,714.007a9.481,9.481,0,0,0-1.7-3.718c-.205-.307-.7-.029-.5.292a9.055,9.055,0,0,1,1.284,3.139,4.319,4.319,0,0,1-.152,2.087.439.439,0,0,0-.045-.056.477.477,0,0,0-.657,0,2.792,2.792,0,0,1-.75.389,3.894,3.894,0,0,1-.451.119l-.142.025c-.088.012-.176.021-.265.027a3.981,3.981,0,0,1-.474,0c-.079,0-.159-.009-.238-.016l-.105-.011-.04,0-.036-.007a5.1,5.1,0,0,1-.907-.253,4.336,4.336,0,0,1-2.41-3.045,6.126,6.126,0,0,1-.107-2.342.348.348,0,0,0-.235-.414.34.34,0,0,0-.414.235,6.806,6.806,0,0,0,.842,4.708,4.64,4.64,0,0,0,3.94,2.185,3.766,3.766,0,0,0,2.1-.674c-1.065,1.835-3.147,2.744-5.146,3.265a17.073,17.073,0,0,1-4.065.549.586.586,0,0,0-.57.517c-.653-.066-1.306-.113-1.962-.116a20.8,20.8,0,0,0-2.171.131c-1.452.146-2.889.383-4.325.639a7.662,7.662,0,0,0-3.614,1.279,4.7,4.7,0,0,0-1.57,2.638,5.68,5.68,0,0,0,.356,3.57.428.428,0,0,0,.539.177.431.431,0,0,0,.25-.509,5.779,5.779,0,0,1-.166-.7c0-.026-.008-.051-.012-.077l-.01-.072c0-.024-.01-.087-.012-.107-.016-.129-.031-.258-.04-.388a6.9,6.9,0,0,1-.007-.728c0-.112.009-.225.019-.337.005-.06.012-.12.019-.18,0,0,0-.013,0-.025l.014-.092a5.172,5.172,0,0,1,.165-.7c.033-.1.07-.208.109-.311l.028-.07c-.008.021-.035.078.007-.016.024-.053.048-.107.074-.16a3.258,3.258,0,0,1,.769-1.06,2.531,2.531,0,0,1,.534-.4,4.207,4.207,0,0,1,.769-.355,14.968,14.968,0,0,1,1.8-.457c1.339-.286,2.68-.578,4.03-.81.763-.131,1.528-.225,2.295-.326.711-.093,1.427-.169,2.143-.2a.566.566,0,0,0,.536.391,17.553,17.553,0,0,0,3.981-.5,13.267,13.267,0,0,0,3.474-1.325,7.082,7.082,0,0,0,2.522-2.39A5.019,5.019,0,0,0-1800.348,714.007Z" transform="translate(-496.131 -365.935)" fill="#161615"/>
    <path id="Path_78" data-name="Path 78" d="M-1917.386,714.246a13.918,13.918,0,0,0-2.2,3.355,5.458,5.458,0,0,0-.288,3.541,3.288,3.288,0,0,0,1.074,1.664.415.415,0,0,0,.587-.587,4.078,4.078,0,0,1-.851-2.683,6.649,6.649,0,0,1,1.063-3.148c.356-.593.76-1.156,1.169-1.714C-1916.6,714.354-1917.132,713.935-1917.386,714.246Z" transform="translate(-415.824 -369.311)" fill="#161615"/>
    <path id="Path_79" data-name="Path 79" d="M-1894.177,782.449a27.362,27.362,0,0,0-2.266-1.926q-1.129-.915-2.263-1.822c-1.532-1.225-3.066-2.448-4.616-3.651-.884-.686-1.784-1.35-2.668-2.036a.309.309,0,0,0-.423,0,.3.3,0,0,0,0,.423c1.539,1.244,3.038,2.539,4.559,3.806q2.255,1.877,4.471,3.8c.855.739,1.685,1.526,2.607,2.181a.49.49,0,0,0,.637-.127A.5.5,0,0,0-1894.177,782.449Z" transform="translate(-427.315 -419.18)" fill="#161615"/>
    <path id="Path_80" data-name="Path 80" d="M-1814.32,839.305a8.354,8.354,0,0,0-.857-.361,5.728,5.728,0,0,0-.883-.2c-.6-.108-1.2-.177-1.8-.225-1.187-.1-2.378-.112-3.563-.234-.323-.033-.644-.077-.964-.13-.344-.056-.684-.15-1.03-.188a.368.368,0,0,0-.184.681,6.709,6.709,0,0,0,1.731.417c.6.091,1.2.155,1.8.209a34.779,34.779,0,0,1,3.48.389c.646.124,1.295.285,1.926.466C-1814.189,840.261-1813.854,839.531-1814.32,839.305Z" transform="translate(-497.476 -474.339)" fill="#161615"/>
    <path id="Path_81" data-name="Path 81" d="M-1702.17,838.6c-7.528-.17-15.048.184-22.561.63-7.479.444-14.951.96-22.438,1.263-4.208.17-8.436.335-12.647.212-.351-.01-.351.534,0,.546,3.762.125,7.515.225,11.28.181s7.521-.21,11.276-.405c7.48-.389,14.953-.92,22.439-1.189,4.214-.151,8.434-.238,12.65-.179A.529.529,0,0,0-1702.17,838.6Z" transform="translate(-551.51 -474.845)" fill="#161615"/>
    <path id="Path_82" data-name="Path 82" d="M-1541.521,677.449a.473.473,0,0,0-.569-.323,47.529,47.529,0,0,1-14.183.338c-1.337-.168-2.666-.407-3.982-.7-.4-.087-.569.519-.169.613a47.954,47.954,0,0,0,7.181,1.13,46.4,46.4,0,0,0,7.283.009q2.067-.161,4.115-.5A.466.466,0,0,0-1541.521,677.449Z" transform="translate(-720.665 -337.608)" fill="#161615"/>
    <path id="Path_83" data-name="Path 83" d="M-1716.938,472.362a25.887,25.887,0,0,1-4.613,4.915,24.788,24.788,0,0,1-5.7,3.506q-.855.379-1.74.68c-.609.208-1.229.368-1.845.552a.292.292,0,0,0,.155.563,18.611,18.611,0,0,0,3.31-1.015,23.217,23.217,0,0,0,3.127-1.494,22.428,22.428,0,0,0,5.44-4.279,22.83,22.83,0,0,0,2.391-3.126C-1716.207,472.333-1716.717,472.051-1716.938,472.362Z" transform="translate(-576.133 -164.123)" fill="#161615"/>
    <path id="Path_84" data-name="Path 84" d="M-1758.6,477.048a56.662,56.662,0,0,1-5.363,5.4,71.042,71.042,0,0,1-5.964,4.646q-1.758,1.241-3.6,2.357a.278.278,0,0,0,.28.479,48.1,48.1,0,0,0,6.407-4.211,55.785,55.785,0,0,0,5.676-5.117q1.51-1.557,2.9-3.225C-1758.073,477.151-1758.4,476.819-1758.6,477.048Z" transform="translate(-539.992 -168.146)" fill="#161615"/>
    <path id="Path_85" data-name="Path 85" d="M-2142.876,304.55a.55.55,0,0,0-.663-.376,22.737,22.737,0,0,1-6.871.133c-2.333-.276-4.649-.73-6.96-1.149-1.334-.242-2.668-.487-4-.725-.423-.075-.611.551-.18.654,2.384.569,4.781,1.08,7.181,1.576a38.942,38.942,0,0,0,7.089.953,15.443,15.443,0,0,0,4.031-.4A.546.546,0,0,0-2142.876,304.55Z" transform="translate(-210.77 -20.096)" fill="#161615"/>
    <path id="Path_86" data-name="Path 86" d="M-2018.959,324.226c-1.064-.153-2.164-.223-3.215-.364-1.07-.144-2.135-.326-3.194-.536a56.034,56.034,0,0,1-6.254-1.654c-1.155-.372-2.288-.8-3.405-1.273a.343.343,0,0,0-.454.119.335.335,0,0,0,.119.454,50.638,50.638,0,0,0,6.123,2.37,48.154,48.154,0,0,0,6.362,1.5,26.093,26.093,0,0,0,3.776.44.534.534,0,0,0,.526-.465A.529.529,0,0,0-2018.959,324.226Z" transform="translate(-317.877 -35.31)" fill="#161615"/>
    <path id="Path_87" data-name="Path 87" d="M-1946.548,388.262a5.673,5.673,0,0,0-.706,1.133q-.329.589-.636,1.19c-.409.8-.774,1.629-1.1,2.469a28.669,28.669,0,0,0-1.49,5.112c-.19,1-.328,2.012-.418,3.027-.037.42.618.417.655,0a30.744,30.744,0,0,1,2.7-10.095c.207-.45.424-.9.656-1.333q.166-.313.339-.623a4.265,4.265,0,0,0,.351-.677A.21.21,0,0,0-1946.548,388.262Z" transform="translate(-389.652 -92.853)" fill="#161615"/>
    <path id="Path_88" data-name="Path 88" d="M-2058.248,385.622a.266.266,0,0,0-.36.094l-.957,2.028a.273.273,0,0,0,.1.363.268.268,0,0,0,.363-.1l.953-2.03A.271.271,0,0,0-2058.248,385.622Z" transform="translate(-297.457 -90.635)" fill="#161615"/>
    <path id="Path_89" data-name="Path 89" d="M-2056.895,352.6a.313.313,0,0,0-.3-.3.306.306,0,0,0-.3.3,18.931,18.931,0,0,1-.875,8c-.245.733-.48,1.464-.778,2.178-.12.288.359.485.5.212a18.021,18.021,0,0,0,.865-1.909,13.972,13.972,0,0,0,.568-2,19.567,19.567,0,0,0,.462-4.121A18.931,18.931,0,0,0-2056.895,352.6Z" transform="translate(-297.817 -62.398)" fill="#161615"/>
    <path id="Path_90" data-name="Path 90" d="M-2077.65,344.923a.241.241,0,0,0-.328.086,20.191,20.191,0,0,0-1.819,8.231.337.337,0,0,0,.673,0,19.915,19.915,0,0,1,1.559-7.99A.248.248,0,0,0-2077.65,344.923Z" transform="translate(-280.324 -56.116)" fill="#161615"/>
    <path id="Path_91" data-name="Path 91" d="M-2175.2,327.471c-.079-1.434-.161-2.863-.169-4.3a.23.23,0,0,0-.46,0c-.009,1.432-.033,2.868.005,4.3s.107,2.864.219,4.293a.369.369,0,0,0,.36.361.363.363,0,0,0,.361-.361C-2175.01,330.334-2175.121,328.9-2175.2,327.471Z" transform="translate(-198.855 -37.504)" fill="#161615"/>
    <path id="Path_92" data-name="Path 92" d="M-2238.663,522.279c-.091-.4-.7-.231-.618.17a19.285,19.285,0,0,1,.2,6.5.375.375,0,1,0,.741.1A19.388,19.388,0,0,0-2238.663,522.279Z" transform="translate(-145.043 -206.382)" fill="#161615"/>
    <path id="Path_93" data-name="Path 93" d="M-2126.041,524.96q-.508-1.273-.916-2.584-.2-.637-.371-1.283-.089-.331-.17-.664a6.738,6.738,0,0,0-.173-.7c-.083-.229-.479-.217-.456.062a8.333,8.333,0,0,0,.3,1.329q.174.682.377,1.356c.268.887.578,1.76.924,2.619a.262.262,0,0,0,.312.177A.255.255,0,0,0-2126.041,524.96Z" transform="translate(-239.33 -204.277)" fill="#161615"/>
    <path id="Path_94" data-name="Path 94" d="M-2114.364,512.946a.306.306,0,0,0-.59.163,28.6,28.6,0,0,1,1.042,8.63c-.01.423.633.419.655,0A26.232,26.232,0,0,0-2114.364,512.946Z" transform="translate(-250.493 -198.478)" fill="#161615"/>
    <path id="Path_95" data-name="Path 95" d="M-1756.329,622.465a10.213,10.213,0,0,0-.453-2.125c-.128-.386-.733-.225-.613.169a9.842,9.842,0,0,1-.488,6.918,11.7,11.7,0,0,1-1.029,1.776c-.25.36.34.825.615.474A10.116,10.116,0,0,0-1756.329,622.465Z" transform="translate(-552.449 -289.565)" fill="#161615"/>
    <path id="Path_96" data-name="Path 96" d="M-1759.689,629.68a.325.325,0,0,0-.315-.315.318.318,0,0,0-.315.315,14.743,14.743,0,0,1-.858,6.541.335.335,0,0,0,.232.409.339.339,0,0,0,.408-.232A14.724,14.724,0,0,0-1759.689,629.68Z" transform="translate(-550.564 -297.408)" fill="#161615"/>
    <path id="Path_97" data-name="Path 97" d="M-1773.068,709.971a29.4,29.4,0,0,1-1.36,4.649c-.136-1.585-.273-3.17-.4-4.756-.034-.42-.692-.424-.659,0,.161,2.069.3,4.14.456,6.21-.193.437-.394.87-.607,1.3a.382.382,0,0,0,.134.51.375.375,0,0,0,.509-.134c.108-.239.211-.479.314-.72a.379.379,0,0,0,.061.006.37.37,0,0,0,.368-.367c-.016-.19-.033-.38-.048-.57a35.65,35.65,0,0,0,1.747-5.985C-1772.489,709.778-1773,709.635-1773.068,709.971Z" transform="translate(-538.273 -365.419)" fill="#161615"/>
    <path id="Path_98" data-name="Path 98" d="M-1767.206,794.35c-.056-.234-.4-.133-.357.1a8.69,8.69,0,0,1-1.631,6.778.27.27,0,0,0,.1.367.275.275,0,0,0,.367-.1A8.579,8.579,0,0,0-1767.206,794.35Z" transform="translate(-543.745 -437.236)" fill="#161615"/>
  </g>
</svg>
