<svg xmlns="http://www.w3.org/2000/svg" width="130.317" height="101.16" viewBox="0 0 130.317 101.16">
  <g id="Group_42" data-name="Group 42" transform="translate(2237.245 -1287.505)">
    <path id="Path_99" data-name="Path 99" d="M-1869,1319.6a7.66,7.66,0,0,0-2.867-2c-1.11-.5-2.216-1-3.3-1.564a45.331,45.331,0,0,1-6.363-4.011,34.914,34.914,0,0,1-3.348-2.719.114.114,0,0,0-.161.161c.9.9,1.785,1.8,2.719,2.658a31.174,31.174,0,0,0,2.925,2.315,38.491,38.491,0,0,0,6.516,3.7,9.786,9.786,0,0,1,3.312,2.024.4.4,0,0,0,.565,0A.408.408,0,0,0-1869,1319.6Z" transform="translate(-286.518 -17.706)" fill="#161615"/>
    <path id="Path_100" data-name="Path 100" d="M-1745.926,1393.683a35.771,35.771,0,0,1-4.954-.6,42.709,42.709,0,0,1-4.956-1.256,52.156,52.156,0,0,1-9.307-4.027,83,83,0,0,1-8.788-5.568c-2.838-2.04-5.491-4.137-8.2-6.353-2.754-2.249-5.488-4.722-8.764-6.191-.412-.185-.819-.379-1.236-.553-.386-.162-.674.512-.287.681a21.9,21.9,0,0,1,4.538,2.834c1.42,1.1,2.759,2.3,4.108,3.483,2.653,2.33,5.381,4.588,8.22,6.69a84.709,84.709,0,0,0,8.775,5.761,57.376,57.376,0,0,0,9.491,4.322,42.352,42.352,0,0,0,10.08,2.17q.641.056,1.284.089a.747.747,0,0,0,.743-.743A.759.759,0,0,0-1745.926,1393.683Z" transform="translate(-361.747 -66.393)" fill="#161615"/>
    <path id="Path_101" data-name="Path 101" d="M-2072.369,1687.941a10.464,10.464,0,0,1-1.045-.405c-.37-.161-.762-.276-1.144-.407-.705-.241-1.414-.472-2.124-.7q-2.129-.68-4.264-1.34c-2.779-.861-5.583-1.7-8.427-2.322a34.591,34.591,0,0,0-8.753-.917,27.825,27.825,0,0,0-8.144,1.667c-1.482.525-2.932,1.139-4.361,1.792-.714.326-1.423.663-2.129,1.006-.261.127-.517.266-.77.409a.375.375,0,0,0-.238-.569,83.005,83.005,0,0,0-13.654-.693c-4.571.024-9.141.074-13.711.124-1.8.019-3.606.012-5.409.041,0,0,0-.008,0-.013a.74.74,0,0,0-.506-.892c-1.243-.372-2.52-.649-3.779-.964l-3.783-.947c-1.241-.311-2.483-.616-3.722-.934a32.584,32.584,0,0,1-3.15-.944,6.281,6.281,0,0,0,2.942-2.288,6.391,6.391,0,0,0,1.135-4.207,6.527,6.527,0,0,0-.725-2.535c-.237-.452-.919-.052-.684.4a5.509,5.509,0,0,1-1.559,6.9,6.7,6.7,0,0,1-1.818.949.468.468,0,0,0-.322.36,23.724,23.724,0,0,1-4.993-3.3c-1.974-1.614-3.943-3.235-5.927-4.837q-1.311-1.058-2.625-2.113a.535.535,0,0,0,.352-.887c-.156-.176-.308-.356-.452-.542-.091-.118-.281-.362-.365-.475s-.178-.249-.273-.37l-.039-.05-.062-.083q-.218-.3-.412-.608a10.718,10.718,0,0,1-.651-1.2l-.072-.161-.013-.028-.012-.031c-.044-.109-.087-.219-.128-.329q-.123-.332-.225-.672a10.823,10.823,0,0,1-.453-2.619,10.467,10.467,0,0,1,.16-2.719,6.264,6.264,0,0,1,.452-1.425,4.712,4.712,0,0,1,.387-.664c.153-.218.357-.389.492-.62.161-.275-.111-.7-.441-.573a2.86,2.86,0,0,0-1.167,1.065,5.493,5.493,0,0,0-.724,1.381,9.594,9.594,0,0,0-.5,3.057,11.779,11.779,0,0,0,1.482,5.964,8.9,8.9,0,0,0,.591.917q-1.057-.857-2.107-1.722a.4.4,0,0,0-.544,0,.388.388,0,0,0,0,.544c3.927,3.411,7.771,6.916,11.7,10.328a24.881,24.881,0,0,0,5.85,4.061,41.866,41.866,0,0,0,7.245,2.191l4.233,1.062c.888.223,1.776.465,2.667.687a.7.7,0,0,0-.486.67.733.733,0,0,0,.719.719c2.293.039,4.592-.041,6.886-.072,2.264-.03,4.528-.056,6.792-.093,4.544-.073,9.091-.193,13.635-.154,2.543.022,5.086.079,7.628.133-.3.174-.59.351-.885.523a.609.609,0,0,0-.249.76.6.6,0,0,0,.719.352c.34-.14.68-.278,1.019-.422l.853-.362c.663-.28,1.3-.612,1.956-.917,1.249-.583,2.405-1.091,3.67-1.576a34.644,34.644,0,0,1,3.876-1.245,23.4,23.4,0,0,1,3.891-.664c5.74-.462,11.333,1.181,16.834,2.688,1.6.439,3.211.843,4.82,1.246.813.2,1.625.409,2.442.6.391.09.785.2,1.18.272.433.076.859.124,1.287.233A.254.254,0,0,0-2072.369,1687.941Z" transform="translate(-45.847 -299.947)" fill="#161615"/>
    <path id="Path_102" data-name="Path 102" d="M-2137.658,1629.9a3,3,0,0,0-.513-.253,2.693,2.693,0,0,0-.6-.076,6,6,0,0,0-1.15.05c-.765.1-1.521.252-2.279.393-1.509.281-3.023.546-4.528.853q-4.463.912-8.921,1.851c-1.668.352-3.342.678-5.014,1.011a.385.385,0,0,0-.267.469.39.39,0,0,0,.469.266c5.909-1.03,11.839-1.936,17.736-3.036.814-.152,1.628-.314,2.445-.452a10.962,10.962,0,0,1,1.155-.129c.206-.013.41-.014.616-.007a6.1,6.1,0,0,0,.61-.051A.482.482,0,0,0-2137.658,1629.9Z" transform="translate(-62.078 -278.291)" fill="#161615"/>
    <path id="Path_103" data-name="Path 103" d="M-2073,1643.441a105.734,105.734,0,0,0-11.932-2.662q-1.709-.3-3.426-.555a.475.475,0,0,0-.566.322.471.471,0,0,0,.009.261c-.79-.273-1.582-.536-2.372-.8q-.645-.213-1.295-.41c-.389-.119-.55.481-.167.607a42.643,42.643,0,0,1,4.786,1.907c1.5.707,3,1.437,4.448,2.249.6.335,1.187.693,1.754,1.081a13.3,13.3,0,0,1,1.538,1.2,11.34,11.34,0,0,1,1.357,1.427l.087.118q.068.093.134.188c.1.145.194.292.283.443q.116.2.221.4.052.1.1.205l.041.089s.031.071.044.1l.026.065.035.092q.04.107.076.216c.056.167.1.335.146.506q.056.227.1.457c0,.023.019.123.023.149.01.089.019.177.024.266s.006.175,0,.263c0,.024-.01.164-.007.169-.014.091-.039.179-.061.268,0,0-.012.036-.018.057s-.049.1-.056.113q-.027.048-.058.093l-.007.01-.019.019a2.021,2.021,0,0,1-.162.155c-.014.008-.117.083-.134.094-.081.052-.163.1-.246.147-.219.123-.437.242-.651.371a10.391,10.391,0,0,1-5.565-1.9,4.319,4.319,0,0,1-1.686-4.392,3.671,3.671,0,0,1,.582-1.216,5.877,5.877,0,0,1,.441-.488,2.382,2.382,0,0,1,.518-.45.187.187,0,0,0-.144-.341,2.823,2.823,0,0,0-1.219.653,3.784,3.784,0,0,0-.788,1.1,4.558,4.558,0,0,0-.332,2.861,6.478,6.478,0,0,0,4.288,4.4,11.105,11.105,0,0,0,2.731.614l-.224.174a13.644,13.644,0,0,1-1.67,1.1q-.43.24-.878.449l-.039.018a.423.423,0,0,0-.452.2l-.058.024q-.142.057-.285.111a14.7,14.7,0,0,1-1.922.576q-.5.114-1,.193l-.2.031-.029,0-.117.015q-.254.031-.509.053a15.557,15.557,0,0,1-2.013.046q-.512-.022-1.022-.075l-.238-.026-.143-.018c-.157-.022-.314-.046-.471-.074a15.047,15.047,0,0,1-1.953-.473q-.487-.153-.962-.34l-.221-.089-.008,0-.1-.042q-.249-.109-.494-.228a13.712,13.712,0,0,1-1.338-.745,4.161,4.161,0,0,0-.072-.9.55.55,0,0,0-.67-.38.531.531,0,0,0-.388.542l-.1-.059a.676.676,0,0,0-.815,1.057,6.731,6.731,0,0,0,.751.653,4.746,4.746,0,0,1-1.144,1.753,7.283,7.283,0,0,1-3.9,1.767c-.867.158-1.741.246-2.618.329a.452.452,0,0,0-.44.44.444.444,0,0,0,.44.44,15.991,15.991,0,0,0,5.125-.851,6.171,6.171,0,0,0,3.431-3.08c.025-.056.045-.112.068-.167a16.066,16.066,0,0,0,2.1.984,15.743,15.743,0,0,0,4.193.991,15.74,15.74,0,0,0,6.867-.85c-.244,1.04-.652,2.054-.986,3.057a9.948,9.948,0,0,0-.65,4.271,4.994,4.994,0,0,0,.8,2.256.517.517,0,0,0,.69.181.509.509,0,0,0,.181-.69,5.126,5.126,0,0,1-.619-3.667,35.451,35.451,0,0,1,1.192-4.24,11.042,11.042,0,0,0,.317-1.533c.211-.092.421-.186.627-.287a13.333,13.333,0,0,0,1.818-1.068c.683-.479,1.283-1.055,1.983-1.487s1.5-.727,1.874-1.516a3.869,3.869,0,0,0,.122-2.48c-.624-2.9-3.041-4.959-5.48-6.39a35.545,35.545,0,0,0-5.763-2.634q5.482.97,10.88,2.349c1.12.286,2.244.557,3.366.833A.539.539,0,0,0-2073,1643.441Z" transform="translate(-106.889 -286.441)" fill="#161615"/>
    <path id="Path_104" data-name="Path 104" d="M-2139.885,1539.839a.709.709,0,0,0-.687-.606,14.039,14.039,0,0,0-1.675-.008l-1.721.034-3.349.066q-3.373.066-6.745.146c-4.482.1-8.962.238-13.443.367l-7.582.219a.481.481,0,0,0,0,.961q6.745-.042,13.49-.082t13.49-.148l3.814-.059,1.861-.029a17.115,17.115,0,0,0,2.047-.095A.693.693,0,0,0-2139.885,1539.839Z" transform="translate(-50.193 -204.774)" fill="#161615"/>
    <path id="Path_105" data-name="Path 105" d="M-2072.792,1372.281a9.575,9.575,0,0,1-3.319-7.629.43.43,0,0,0-.426-.425.434.434,0,0,0-.425.425,9.752,9.752,0,0,0,1.284,5.687c-.367-.35-.742-.692-1.132-1.015a11.206,11.206,0,0,0-2.625-1.684c-2.185-.954-4.625-.909-6.964-.956-.673-.014-1.346-.017-2.019-.039q-.528-.017-1.055-.036c-.164-.006-.333-.023-.5-.028a7.6,7.6,0,0,0,2.458-5.779c.046-2.989-1.217-5.762-2.356-8.456a34.273,34.273,0,0,1-1.657-4.551c-.116-.441-.721-.242-.663.183.39,2.811,1.724,5.368,2.587,8.044a15.127,15.127,0,0,1,.8,4.014,7.8,7.8,0,0,1-.527,3.319,3.023,3.023,0,0,1-.124.287q-.1.219-.219.431t-.248.413c-.038.057-.076.115-.115.171-.01.015-.1.144-.11.155-.044.059-.09.117-.135.175.067-.086-.09.111-.1.129q-.155.183-.323.353l-.151.15c.075-.207.145-.417.206-.628a.525.525,0,0,0-1.011-.279,9.843,9.843,0,0,1-6.071,6.313,8.711,8.711,0,0,1-1.222.342c-.208.042-.417.078-.628.1a1.986,1.986,0,0,0-.692.137c-.265.132-.152.48.074.57a1.342,1.342,0,0,0,.618.03c.223-.018.444-.046.665-.078a10.2,10.2,0,0,0,1.178-.248,10.041,10.041,0,0,0,2.3-.946,10.566,10.566,0,0,0,3.629-3.393q.2-.3.374-.626a.6.6,0,0,0,.716.164.262.262,0,0,0,.13.135,2.541,2.541,0,0,0,.847.179c.306.036.612.072.917.109.581.072,1.16.147,1.738.23,1.158.166,2.38.328,3.5.451.294.032.572.069.813.1.272.035.446.056.741.108a9.307,9.307,0,0,1,1.611.421,4.448,4.448,0,0,1,.536.229c.231.112.457.235.677.367.2.119.393.245.583.377.106.074.211.149.315.226l.1.076.118.092c.45.356.878.739,1.294,1.133a12.811,12.811,0,0,0,1.341,1.236.72.72,0,0,0,1.062-.521,8.815,8.815,0,0,0,1.093.932C-2072.919,1373.245-2072.429,1372.605-2072.792,1372.281Z" transform="translate(-111.308 -48.849)" fill="#161615"/>
    <path id="Path_106" data-name="Path 106" d="M-1964.991,1506.489a5.352,5.352,0,0,0-1.275-2.656,13.242,13.242,0,0,0-2.032-1.988,31.727,31.727,0,0,0-4.869-3.075q-1.283-.685-2.571-1.362l.172-.07.965-.389c.365-.147.727-.295,1.084-.452a2.268,2.268,0,0,0,1.541-.793,6.23,6.23,0,0,0,1.115-3.424,6.99,6.99,0,0,0-.629-3.632,7.371,7.371,0,0,0-1.991-2.461,6.964,6.964,0,0,0-.75-.566c-.248-.153-.5-.293-.747-.45l-.739-.472a2.764,2.764,0,0,0-.842-.45c-.25-.054-.542.229-.365.475a4.93,4.93,0,0,0,1.13.9,10.96,10.96,0,0,1,1.023.929c.33.318.664.626.971.967a6.693,6.693,0,0,1,.757,1.006,5.326,5.326,0,0,1,.832,2.675,7.528,7.528,0,0,1-.442,2.935c0-.005-.044.112-.052.133-.026.058-.053.116-.083.172a3.05,3.05,0,0,1-.187.31,1.051,1.051,0,0,1-.394.373c-.037.021-.076.04-.114.059a.391.391,0,0,0-.04.022.275.275,0,0,0-.042.007c-.051.011-.1.026-.152.038-.01,0-.1.008-.116.009-.041,0-.083,0-.124,0,0,0-.137-.012-.111,0a.631.631,0,0,1-.247-.094c-.392-.232-.945.253-.657.658a1.668,1.668,0,0,0,.206.236l-.177.079-.917.411-.458.205c-.076.034-.156.064-.229.1a.576.576,0,0,0-.1.069q-1.433-.755-2.866-1.511c-.526-.278-.989.507-.467.8,1.8,1.014,3.613,2.021,5.413,3.044a39.853,39.853,0,0,1,4.6,2.917,18.574,18.574,0,0,1,1.96,1.733,11.805,11.805,0,0,1,.822.923,5.976,5.976,0,0,1,.368.54q.079.131.15.266.036.068.069.136c.006.013.037.08.045.1a3.381,3.381,0,0,1,.006,2.457,8.977,8.977,0,0,1-1.2,2.28q-.106.153-.217.3l-.089.119-.036.048-.038.047c-.148.183-.3.365-.456.541a12.366,12.366,0,0,1-1,1,12.842,12.842,0,0,1-1.706,1.271.539.539,0,0,0-.434-.823,2.373,2.373,0,0,1-.538-.073q-.12-.028-.238-.065-.088-.027-.175-.059l-.106-.041a4.091,4.091,0,0,1-.469-.249c-.088-.053-.176-.106-.261-.163l-.1-.07-.094-.07a5.036,5.036,0,0,1-1.449-1.872,5.59,5.59,0,0,1-.514-2.391,9.74,9.74,0,0,1,.592-3.119,28.768,28.768,0,0,1,1.487-3.37c.234-.474-.462-.891-.714-.418a16.82,16.82,0,0,0-2.394,6.657,6.486,6.486,0,0,0,2.049,5.265,4.3,4.3,0,0,0,2.925,1.1c.019,0,.035,0,.053-.006-.055.032-.106.066-.161.1a.666.666,0,0,0-.235.9.669.669,0,0,0,.9.235,11.978,11.978,0,0,0,4.169-3.479C-1965.831,1510.411-1964.73,1508.465-1964.991,1506.489Z" transform="translate(-209.117 -160.06)" fill="#161615"/>
    <path id="Path_107" data-name="Path 107" d="M-1982.114,1495.788a9.979,9.979,0,0,1-3.9-7.288,8.51,8.51,0,0,1,.231-2.389.382.382,0,0,0-.736-.2,9.945,9.945,0,0,0,1.942,8.8,7.259,7.259,0,0,0,2,1.679C-1982.215,1496.6-1981.765,1496.065-1982.114,1495.788Z" transform="translate(-203.718 -161.195)" fill="#161615"/>
    <path id="Path_108" data-name="Path 108" d="M-2054.881,1292.646a2.847,2.847,0,0,1-.323-.181l-.157-.1c-.034-.021-.223-.156-.1-.066-.084-.063-.167-.127-.252-.188l-.021-.014-.026-.024c-.1-.091-.206-.183-.3-.282-.4-.409-.743-.876-1.112-1.316a6.8,6.8,0,0,0-3.1-2.069,14.668,14.668,0,0,0-3.8-.624c-1.523-.094-3.05-.141-4.575-.186-3.158-.093-6.318-.122-9.477-.063s-6.317.189-9.471.4-6.306.523-9.449.9q-.6.071-1.2.146a.457.457,0,0,0-.443.443.446.446,0,0,0,.443.443c3.129-.267,6.262-.445,9.4-.608q4.73-.245,9.469-.3,4.715-.057,9.431.063,2.38.063,4.759.179c.649.031,1.3.064,1.946.126.146.014.291.029.436.047l.109.013.048.006.046.006.144.021c.31.048.619.106.925.177a9.1,9.1,0,0,1,.892.254c.124.043.246.089.368.138l.109.047c.074.034.147.069.22.106a5.739,5.739,0,0,1,.776.468l.07.051,0,0q.082.066.162.136.17.148.325.311c.393.407.726.866,1.09,1.3a4.049,4.049,0,0,0,1.316,1.14,2.463,2.463,0,0,0,1.007.229C-2054.613,1293.786-2054.324,1292.908-2054.881,1292.646Z" transform="translate(-112.733 0)" fill="#161615"/>
    <path id="Path_109" data-name="Path 109" d="M-1975.306,1375a14.488,14.488,0,0,1-.744,3.6c-.195.581-.432,1.143-.68,1.7-.12.272-.238.546-.381.806a5.1,5.1,0,0,0-.428.843c-.075.228.211.336.365.213a3.084,3.084,0,0,0,.6-.742c.18-.269.366-.533.531-.812a10.746,10.746,0,0,0,.817-1.784,13.075,13.075,0,0,0,.752-3.823C-1974.445,1374.464-1975.269,1374.47-1975.306,1375Z" transform="translate(-211.28 -70.858)" fill="#161615"/>
    <path id="Path_110" data-name="Path 110" d="M-1956.809,1407.51a.386.386,0,0,0-.522.137,8.468,8.468,0,0,1-6.939,4.373,7.234,7.234,0,0,1-2.406-.329c-.406-.128-.574.5-.175.635a8.619,8.619,0,0,0,8.718-2.1,7.629,7.629,0,0,0,1.461-2.189A.394.394,0,0,0-1956.809,1407.51Z" transform="translate(-219.8 -97.591)" fill="#161615"/>
    <path id="Path_111" data-name="Path 111" d="M-1888.751,1553.3a4.82,4.82,0,0,0-3.222-1.018c-1.134-.025-2.266.092-3.4.072a28.383,28.383,0,0,1-7.039-1.056,50.853,50.853,0,0,1-13.226-6.163c-2.358-1.463-4.647-3.024-6.961-4.553a.348.348,0,0,0-.47.124.352.352,0,0,0,.124.47,91.443,91.443,0,0,0,12.353,8.2,35.957,35.957,0,0,0,13.947,4.308c1.311.1,2.609.046,3.92.017.3-.007.6-.007.9.006.149.007.3.016.446.031l.147.016c-.121-.014.148.024.173.028a5.209,5.209,0,0,1,.836.216l.109.042c-.006,0,.133.063.151.072.141.072.285.136.424.212C-1888.911,1554.665-1888.187,1553.815-1888.751,1553.3Z" transform="translate(-255.565 -205.858)" fill="#161615"/>
    <path id="Path_112" data-name="Path 112" d="M-1690.854,1590.016a67.863,67.863,0,0,1-6.185,5.468c-.276.215.1.705.378.489a50.507,50.507,0,0,0,6.19-5.574A.271.271,0,0,0-1690.854,1590.016Z" transform="translate(-439.417 -246.048)" fill="#161615"/>
    <path id="Path_113" data-name="Path 113" d="M-2035.888,1476.646c-.547-.708-1.056-1.454-1.547-2.2a17.329,17.329,0,0,1-1.317-2.4,16.249,16.249,0,0,1-1.359-5.19c-.045-.5-.061-1-.056-1.5q0-.375.025-.749a2.147,2.147,0,0,0-.01-.831.319.319,0,0,0-.575-.075,1.446,1.446,0,0,0-.159.682q-.034.374-.05.749c-.021.475-.018.95,0,1.424a17.747,17.747,0,0,0,.352,2.864,17.33,17.33,0,0,0,1.044,3.313,15.558,15.558,0,0,1-2.168-5.216c-.072-.346-.594-.2-.528.146a14.754,14.754,0,0,0,3.725,7.428.256.256,0,0,0,.273.078,11.134,11.134,0,0,0,1.762,2.059.422.422,0,0,0,.585,0A.425.425,0,0,0-2035.888,1476.646Z" transform="translate(-158.652 -143.228)" fill="#161615"/>
    <path id="Path_114" data-name="Path 114" d="M-2025.1,1466.393a6.354,6.354,0,0,0-.858,5.9c.092.259.506.149.416-.115a6.077,6.077,0,0,1,.9-5.516C-2024.438,1466.382-2024.9,1466.128-2025.1,1466.393Z" transform="translate(-171.6 -145.447)" fill="#161615"/>
    <path id="Path_115" data-name="Path 115" d="M-2009.311,1569.681c-.02-.511-.812-.516-.8,0a14.553,14.553,0,0,1-2,7.738,15.157,15.157,0,0,1-1.3,1.888.462.462,0,0,0,0,.635.453.453,0,0,0,.635,0,15.214,15.214,0,0,0,3.361-7.855A14.743,14.743,0,0,0-2009.311,1569.681Z" transform="translate(-182.006 -229.256)" fill="#161615"/>
    <path id="Path_116" data-name="Path 116" d="M-2059.065,1648.358c-.079-.488-.186-.972-.313-1.45q-.1-.38-.219-.756a3.408,3.408,0,0,0-.274-.729c-.144-.242-.594-.159-.564.153a9.017,9.017,0,0,0,.3,1.223c.1.411.187.826.255,1.243a11.217,11.217,0,0,1,.14,2.5,7.955,7.955,0,0,1-1.3,3.973,5.735,5.735,0,0,1-1.555,1.562.558.558,0,0,0-.2.745.549.549,0,0,0,.745.2,7.3,7.3,0,0,0,2.681-3.652A10.264,10.264,0,0,0-2059.065,1648.358Z" transform="translate(-141.875 -291.077)" fill="#161615"/>
    <path id="Path_117" data-name="Path 117" d="M-2221.312,1312.187c2.917-3.712,5.925-7.43,7.8-11.8a20.928,20.928,0,0,0,1.268-3.871.611.611,0,0,0-.417-.734.605.605,0,0,0-.735.417,31.454,31.454,0,0,1-2.492,6.492,59.349,59.349,0,0,1-3.642,6.052c-.67.99-1.381,1.954-2.087,2.919a.385.385,0,0,0-.456.1,17.812,17.812,0,0,0-1.779,3.034q-.78,1.537-1.479,3.114-.71,1.6-1.338,3.242c-.235.615-.466,1.234-.679,1.859a18.177,18.177,0,0,0-1.826-.088c-.124,0-.248.007-.371.015l-.477-.326q-.327-.225-.649-.457-.175-.127-.35-.256l-.173-.13-.152-.116a16.557,16.557,0,0,1-2.425-2.259q-.113-.132-.223-.268c-.035-.043-.068-.086-.1-.129l-.079-.1c-.164-.222-.319-.451-.464-.686s-.279-.476-.4-.723c-.051-.1-.1-.208-.147-.312l-.02-.042-.014-.035c-.034-.086-.068-.172-.1-.259a7.722,7.722,0,0,1-.232-.749c-.038-.147-.071-.3-.1-.446-.014-.075-.028-.149-.04-.224-.006-.038-.012-.076-.017-.114l-.008-.064a8.98,8.98,0,0,1-.011-1.737c.007-.075.015-.151.024-.226,0-.022,0-.038.006-.051l.009-.053c.021-.125.041-.25.066-.375a9.923,9.923,0,0,1,.24-.964,8.9,8.9,0,0,1,.61-1.536,11.3,11.3,0,0,1,2.057-2.882,16.827,16.827,0,0,1,2.74-2.294,32.4,32.4,0,0,1,3.185-1.885,11.569,11.569,0,0,1,3.957-1.415,10.774,10.774,0,0,1,2.348,0c.378.039.753.1,1.129.151.213.031.429.043.642.074a2.6,2.6,0,0,0,.64.008.276.276,0,0,0,.138-.51,2.337,2.337,0,0,0-.475-.253c-.173-.058-.347-.114-.52-.175a9.454,9.454,0,0,0-1.144-.3,11,11,0,0,0-2.306-.3,10.272,10.272,0,0,0-4.162.991,26.456,26.456,0,0,0-3.455,1.868,21.241,21.241,0,0,0-3.181,2.422,12.555,12.555,0,0,0-3.872,6.6,9.257,9.257,0,0,0,.049,4,9.163,9.163,0,0,0,1.508,3.178,15.183,15.183,0,0,0,2.782,2.858c.388.312.786.612,1.189.905a6.563,6.563,0,0,0-.834.369,8.485,8.485,0,0,0-3.944,4.884,12.478,12.478,0,0,0-.073,6.87,15.212,15.212,0,0,0,2.617,5.412,15.868,15.868,0,0,0,3.5,3.391,7.62,7.62,0,0,0-1.369,1.213,6.935,6.935,0,0,0-1.481,4.711,21.141,21.141,0,0,0,.229,2.589,22.365,22.365,0,0,0,.461,2.578,8.14,8.14,0,0,0,1.065,2.473,10.348,10.348,0,0,0,1.808,1.984c.815.721,1.651,1.418,2.49,2.111a7.291,7.291,0,0,0,1.242.912,1.658,1.658,0,0,0,.682.2,1.3,1.3,0,0,0,.6-.178.173.173,0,0,0-.132-.314c-.353.086-.74-.258-.98-.485-.319-.3-.62-.625-.937-.931-.659-.634-1.33-1.252-2-1.877a12.482,12.482,0,0,1-1.637-1.759,6.977,6.977,0,0,1-1.011-2.13,18.553,18.553,0,0,1-.5-2.362c-.121-.764-.237-1.531-.3-2.3a6.711,6.711,0,0,1,.782-4.388,5.485,5.485,0,0,1,1.7-1.579c.339.21.687.408,1.045.59a.751.751,0,0,0,1.009-.264.748.748,0,0,0-.265-1.008c-.089-.045-.175-.1-.263-.142.25-.123.5-.243.748-.366a.4.4,0,0,0,.141-.538.4.4,0,0,0-.538-.141c-.393.174-.79.361-1.182.565-.058-.036-.118-.07-.176-.107q-.263-.17-.519-.353-.142-.1-.282-.205l-.106-.081-.13-.1a14.834,14.834,0,0,1-2.042-2q-.1-.12-.2-.242l-.109-.136-.018-.022q-.232-.3-.447-.615-.4-.575-.737-1.185t-.636-1.28l-.038-.087-.05-.122c-.039-.1-.077-.194-.114-.292q-.136-.359-.252-.724-.212-.665-.357-1.348a10.863,10.863,0,0,1-.218-1.452,10.753,10.753,0,0,1,.167-3.154,7.79,7.79,0,0,1,1.145-2.788q.1-.145.2-.287l.083-.112.015-.021.02-.024c.154-.19.314-.374.484-.549s.33-.326.506-.477l.106-.089.1-.078q.138-.106.282-.2a7.84,7.84,0,0,1,.678-.41c.111-.06.223-.118.336-.172l.156-.072.044-.021.043-.015a7.212,7.212,0,0,1,.868-.261c.246.158.493.315.744.465a.722.722,0,0,0,.972-.255.672.672,0,0,0,.093-.381l.549-.006c-.025.087-.052.173-.076.261-.544,2.045-.621,4.45.683,6.244a6.282,6.282,0,0,0,5.621,2.25,18.352,18.352,0,0,0,3.952-.755c1.317-.382,2.655-.684,3.988-1,.477-.114.273-.828-.2-.73-1.134.233-2.269.5-3.413.683-1.114.177-2.22.424-3.342.542a8.349,8.349,0,0,1-3.014-.137,4.77,4.77,0,0,1-2.216-1.215,4.366,4.366,0,0,1-1.122-2.288,7.5,7.5,0,0,1,.1-2.9c.072-.336.158-.668.254-1a2.778,2.778,0,0,0,1.206-.335.31.31,0,0,0-.073-.559,4.4,4.4,0,0,0-.8-.143c.132-.384.271-.766.412-1.147q.563-1.528,1.2-3.026.506-1.176,1.058-2.33a.352.352,0,0,0,.159-.1,9.515,9.515,0,0,1,1.994-1.791,5.3,5.3,0,0,1,2.382-.782,4.476,4.476,0,0,1,4.218,2.239,5.522,5.522,0,0,1-.3,5.042,12.074,12.074,0,0,1-4.037,4.06c-.987.679-2.01,1.3-3.018,1.951-.559.36-1.116.723-1.674,1.084a11.623,11.623,0,0,0-1.654,1.142.232.232,0,0,0,.224.385,11.075,11.075,0,0,0,1.688-.9l1.605-.926c1-.577,2-1.159,2.983-1.771a13.093,13.093,0,0,0,4.662-4.357,6.728,6.728,0,0,0,.577-5.845,5.448,5.448,0,0,0-4.692-3.166,5.874,5.874,0,0,0-3.231.766c-.186.1-.369.218-.548.34a17.31,17.31,0,0,0,.829-1.76C-2221.315,1312.2-2221.314,1312.193-2221.312,1312.187Z" transform="translate(0 -6.716)" fill="#161615"/>
  </g>
</svg>
