<?xml version="1.0" standalone="no"?>
<!DOCTYPE svg PUBLIC "-//W3C//DTD SVG 20010904//EN"
 "http://www.w3.org/TR/2001/REC-SVG-20010904/DTD/svg10.dtd">
<svg version="1.0" xmlns="http://www.w3.org/2000/svg"
 width="700.000000pt" height="700.000000pt" viewBox="0 0 700.000000 700.000000"
 preserveAspectRatio="xMidYMid meet">
<metadata>
Created by potrace 1.11, written by Peter Selinger 2001-2013
</metadata>
<g transform="translate(0.000000,700.000000) scale(0.100000,-0.100000)"
fill="#000000" stroke="none">
<path d="M6314 6589 c-123 -11 -241 -55 -360 -134 -85 -57 -85 -53 -3 -149
l72 -85 29 24 c85 72 226 125 329 125 170 0 282 -89 275 -218 -9 -150 -157
-235 -418 -241 l-48 -1 0 -104 0 -103 57 -2 c197 -4 348 -46 410 -113 82 -88
67 -249 -30 -319 -68 -49 -163 -73 -271 -66 -50 3 -104 8 -121 12 -46 9 -172
74 -227 118 -27 21 -51 37 -52 35 -1 -1 -31 -43 -66 -91 l-63 -88 29 -30 c35
-37 118 -92 188 -124 218 -101 538 -91 736 22 43 25 125 102 162 153 58 79 71
254 27 350 -47 102 -143 181 -278 230 -34 13 -60 24 -58 26 1 2 39 21 84 44
45 22 103 61 128 86 131 127 133 342 3 489 -102 116 -306 174 -534 154z"/>
<path d="M20 5932 c-7 -3 -10 -933 -10 -2766 l0 -2763 2764 0 c2515 0 2765 2
2768 16 2 9 4 1253 3 2766 l0 2750 -2758 0 c-1516 0 -2762 -1 -2767 -3z m5320
-2762 l0 -2560 -785 -1 c-1010 0 -3100 0 -3797 0 l-543 1 2 2542 c1 1399 2
2551 2 2561 1 16 130 17 2561 17 l2560 0 0 -2560z"/>
<path d="M1195 4051 c-39 -9 -102 -32 -140 -49 -76 -36 -194 -112 -195 -126 0
-5 32 -46 70 -92 l71 -83 47 36 c99 76 212 113 329 108 89 -5 142 -21 190 -59
103 -83 88 -239 -32 -323 -57 -40 -194 -71 -312 -72 l-53 -1 0 -105 0 -105 48
-1 c194 -2 339 -41 410 -109 68 -64 81 -190 29 -269 -80 -121 -323 -161 -511
-85 -32 13 -92 46 -133 74 -40 27 -75 50 -78 50 -11 0 -126 -173 -122 -183 3
-7 29 -31 58 -54 151 -115 300 -161 517 -158 248 4 431 87 531 244 54 83 71
223 40 320 -13 40 -58 110 -92 142 -43 42 -142 100 -197 116 -30 8 -59 18 -64
20 -4 3 19 17 51 32 206 91 294 234 259 421 -20 104 -106 212 -210 263 -132
65 -359 86 -511 48z"/>
<path d="M2809 3705 c-98 -20 -205 -73 -271 -134 -15 -13 -30 -22 -33 -19 -3
3 -10 31 -15 62 -5 31 -11 60 -15 65 -3 5 -56 8 -118 8 l-112 -2 -1 -847 0
-848 144 0 145 0 -6 273 c-3 149 -8 282 -11 295 -7 29 0 28 48 -11 87 -71 212
-111 319 -104 127 10 228 57 323 151 106 107 169 252 182 423 27 351 -111 618
-353 682 -61 16 -164 19 -226 6z m142 -257 c94 -52 140 -152 145 -318 5 -178
-27 -290 -106 -369 -104 -104 -263 -110 -403 -17 l-57 38 0 278 0 278 36 31
c49 43 100 75 154 94 64 24 176 16 231 -15z"/>
<path d="M4030 3704 c-92 -17 -168 -48 -236 -96 -136 -94 -208 -207 -251 -393
-12 -51 -9 -225 4 -290 18 -90 83 -222 140 -285 105 -116 266 -189 431 -195
364 -11 630 248 633 620 2 205 -54 349 -185 480 -136 135 -341 196 -536 159z
m246 -250 c110 -52 172 -174 179 -349 11 -253 -102 -418 -292 -429 -85 -5
-155 19 -213 71 -47 42 -95 121 -105 173 -14 69 -16 91 -16 160 -1 176 57 301
166 365 74 44 199 48 281 9z"/>
</g>
</svg>
